<svg width="66" height="85" viewBox="0 0 66 85" fill="none" xmlns="http://www.w3.org/2000/svg">
<mask id="path-1-inside-1_963_5900" fill="white">
<path d="M7.2832 22.5908C6.25195 21.5596 5.46777 20.3887 4.93066 19.0781C4.39355 17.7676 4.125 16.3926 4.125 14.9531C4.125 13.4277 4.4043 12.0205 4.96289 10.7314C5.52148 9.44238 6.28418 8.31445 7.25098 7.34766C8.21777 6.38086 9.36719 5.62891 10.6992 5.0918C12.0312 4.55469 13.4385 4.27539 14.9209 4.25391C16.3389 4.25391 17.7139 4.50098 19.0459 4.99512C20.3779 5.48926 21.5596 6.25195 22.5908 7.2832L33.9668 18.6592L31.0342 21.5918L24.75 15.3076L15.3076 24.75L21.5918 31.0342L18.6592 33.9668L7.2832 22.5908ZM14.9531 8.31445C14.0293 8.31445 13.1592 8.47559 12.3428 8.79785C11.5264 9.12012 10.8174 9.59277 10.2158 10.2158C9.61426 10.8389 9.1416 11.5371 8.79785 12.3105C8.4541 13.084 8.27148 13.9648 8.25 14.9531C8.25 15.7695 8.35742 16.4785 8.57227 17.0801C8.78711 17.6816 9.09863 18.251 9.50684 18.7881C9.91504 19.3252 10.3555 19.8301 10.8281 20.3027C11.3008 20.7754 11.8164 21.2803 12.375 21.8174L21.8174 12.375C21.2588 11.8379 20.7539 11.3223 20.3027 10.8281C19.8516 10.334 19.3574 9.9043 18.8203 9.53906C18.2832 9.17383 17.7246 8.87305 17.1445 8.63672C16.5645 8.40039 15.834 8.29297 14.9531 8.31445ZM66 66L45.6006 60.9082L36.1582 51.4658L39.0908 48.5332L46.084 55.5586C46.4277 54.4414 46.9004 53.3887 47.502 52.4004C48.1035 51.4121 48.8232 50.499 49.6611 49.6611C50.499 48.8232 51.4014 48.1143 52.3682 47.5342C53.335 46.9541 54.3984 46.4707 55.5586 46.084L48.5332 39.0908L51.4658 36.1582L60.9082 45.6006L66 66ZM60.3281 60.3281L57.6855 49.7256C56.6758 49.9404 55.7412 50.2842 54.8818 50.7568C54.0225 51.2295 53.2383 51.8203 52.5293 52.5293C51.8203 53.2383 51.2295 54.0225 50.7568 54.8818C50.2842 55.7412 49.9404 56.6758 49.7256 57.6855L60.3281 60.3281ZM55.6875 6.1875C56.8262 6.1875 57.8896 6.40234 58.8779 6.83203C59.8662 7.26172 60.7471 7.85254 61.5205 8.60449C62.2939 9.35645 62.8848 10.2266 63.293 11.2148C63.7012 12.2031 63.916 13.2773 63.9375 14.4375C63.9375 15.5332 63.7334 16.5859 63.3252 17.5957C62.917 18.6055 62.3154 19.4971 61.5205 20.2705L24.5889 57.2021C24.3955 58.4697 23.998 59.6299 23.3965 60.6826C22.7949 61.7354 22.043 62.6699 21.1406 63.4863C20.2383 64.3027 19.2178 64.915 18.0791 65.3232C16.9404 65.7314 15.7266 65.957 14.4375 66H0V61.875C0.236328 61.875 0.483398 61.8428 0.741211 61.7783C0.999023 61.7139 1.23535 61.6172 1.4502 61.4883C1.9873 61.209 2.42773 60.8545 2.77148 60.4248C3.11523 59.9951 3.38379 59.5225 3.57715 59.0068C3.77051 58.4912 3.91016 57.9541 3.99609 57.3955C4.08203 56.8369 4.125 56.2676 4.125 55.6875C4.125 54.4199 4.33984 53.2168 4.76953 52.0781C5.19922 50.9395 5.82227 49.9082 6.63867 48.9844C7.45508 48.0605 8.37891 47.3086 9.41016 46.7285C10.4414 46.1484 11.6123 45.751 12.9229 45.5361L49.8545 8.60449C50.6279 7.83105 51.5195 7.24023 52.5293 6.83203C53.5391 6.42383 54.5918 6.20898 55.6875 6.1875ZM14.4375 61.875C15.2969 61.875 16.1025 61.7139 16.8545 61.3916C17.6064 61.0693 18.2617 60.6289 18.8203 60.0703C19.3789 59.5117 19.8193 58.8564 20.1416 58.1045C20.4639 57.3525 20.625 56.5469 20.625 55.6875C20.625 54.8281 20.4639 54.0225 20.1416 53.2705C19.8193 52.5186 19.3789 51.8633 18.8203 51.3047C18.2617 50.7461 17.6064 50.3057 16.8545 49.9834C16.1025 49.6611 15.2969 49.5 14.4375 49.5C13.5781 49.5 12.7725 49.6611 12.0205 49.9834C11.2686 50.3057 10.6133 50.7461 10.0547 51.3047C9.49609 51.8633 9.05566 52.5186 8.7334 53.2705C8.41113 54.0225 8.25 54.8281 8.25 55.6875C8.25 57.9219 7.5625 59.9844 6.1875 61.875H14.4375ZM31.1309 44.8271C30.4434 43.4736 29.6377 42.335 28.7139 41.4111C27.79 40.4873 26.6514 39.6816 25.2979 38.9941L18.1758 46.1162C19.5078 46.6318 20.6787 47.3945 21.6885 48.4043C22.6982 49.4141 23.4717 50.5957 24.0088 51.9492L31.1309 44.8271ZM58.5879 17.3379C59.3828 16.543 59.7803 15.5762 59.7803 14.4375C59.7803 13.8789 59.6729 13.3525 59.458 12.8584C59.2432 12.3643 58.9531 11.9346 58.5879 11.5693C58.2227 11.2041 57.7822 10.9033 57.2666 10.667C56.751 10.4307 56.2246 10.3232 55.6875 10.3447C54.5488 10.3447 53.582 10.7422 52.7871 11.5371L28.3271 35.9648C29.6377 36.7383 30.7441 37.5762 31.6465 38.4785C32.5488 39.3809 33.3867 40.4873 34.1602 41.7979L58.5879 17.3379Z"/>
</mask>
<path d="M7.2832 22.5908C6.25195 21.5596 5.46777 20.3887 4.93066 19.0781C4.39355 17.7676 4.125 16.3926 4.125 14.9531C4.125 13.4277 4.4043 12.0205 4.96289 10.7314C5.52148 9.44238 6.28418 8.31445 7.25098 7.34766C8.21777 6.38086 9.36719 5.62891 10.6992 5.0918C12.0312 4.55469 13.4385 4.27539 14.9209 4.25391C16.3389 4.25391 17.7139 4.50098 19.0459 4.99512C20.3779 5.48926 21.5596 6.25195 22.5908 7.2832L33.9668 18.6592L31.0342 21.5918L24.75 15.3076L15.3076 24.75L21.5918 31.0342L18.6592 33.9668L7.2832 22.5908ZM14.9531 8.31445C14.0293 8.31445 13.1592 8.47559 12.3428 8.79785C11.5264 9.12012 10.8174 9.59277 10.2158 10.2158C9.61426 10.8389 9.1416 11.5371 8.79785 12.3105C8.4541 13.084 8.27148 13.9648 8.25 14.9531C8.25 15.7695 8.35742 16.4785 8.57227 17.0801C8.78711 17.6816 9.09863 18.251 9.50684 18.7881C9.91504 19.3252 10.3555 19.8301 10.8281 20.3027C11.3008 20.7754 11.8164 21.2803 12.375 21.8174L21.8174 12.375C21.2588 11.8379 20.7539 11.3223 20.3027 10.8281C19.8516 10.334 19.3574 9.9043 18.8203 9.53906C18.2832 9.17383 17.7246 8.87305 17.1445 8.63672C16.5645 8.40039 15.834 8.29297 14.9531 8.31445ZM66 66L45.6006 60.9082L36.1582 51.4658L39.0908 48.5332L46.084 55.5586C46.4277 54.4414 46.9004 53.3887 47.502 52.4004C48.1035 51.4121 48.8232 50.499 49.6611 49.6611C50.499 48.8232 51.4014 48.1143 52.3682 47.5342C53.335 46.9541 54.3984 46.4707 55.5586 46.084L48.5332 39.0908L51.4658 36.1582L60.9082 45.6006L66 66ZM60.3281 60.3281L57.6855 49.7256C56.6758 49.9404 55.7412 50.2842 54.8818 50.7568C54.0225 51.2295 53.2383 51.8203 52.5293 52.5293C51.8203 53.2383 51.2295 54.0225 50.7568 54.8818C50.2842 55.7412 49.9404 56.6758 49.7256 57.6855L60.3281 60.3281ZM55.6875 6.1875C56.8262 6.1875 57.8896 6.40234 58.8779 6.83203C59.8662 7.26172 60.7471 7.85254 61.5205 8.60449C62.2939 9.35645 62.8848 10.2266 63.293 11.2148C63.7012 12.2031 63.916 13.2773 63.9375 14.4375C63.9375 15.5332 63.7334 16.5859 63.3252 17.5957C62.917 18.6055 62.3154 19.4971 61.5205 20.2705L24.5889 57.2021C24.3955 58.4697 23.998 59.6299 23.3965 60.6826C22.7949 61.7354 22.043 62.6699 21.1406 63.4863C20.2383 64.3027 19.2178 64.915 18.0791 65.3232C16.9404 65.7314 15.7266 65.957 14.4375 66H0V61.875C0.236328 61.875 0.483398 61.8428 0.741211 61.7783C0.999023 61.7139 1.23535 61.6172 1.4502 61.4883C1.9873 61.209 2.42773 60.8545 2.77148 60.4248C3.11523 59.9951 3.38379 59.5225 3.57715 59.0068C3.77051 58.4912 3.91016 57.9541 3.99609 57.3955C4.08203 56.8369 4.125 56.2676 4.125 55.6875C4.125 54.4199 4.33984 53.2168 4.76953 52.0781C5.19922 50.9395 5.82227 49.9082 6.63867 48.9844C7.45508 48.0605 8.37891 47.3086 9.41016 46.7285C10.4414 46.1484 11.6123 45.751 12.9229 45.5361L49.8545 8.60449C50.6279 7.83105 51.5195 7.24023 52.5293 6.83203C53.5391 6.42383 54.5918 6.20898 55.6875 6.1875ZM14.4375 61.875C15.2969 61.875 16.1025 61.7139 16.8545 61.3916C17.6064 61.0693 18.2617 60.6289 18.8203 60.0703C19.3789 59.5117 19.8193 58.8564 20.1416 58.1045C20.4639 57.3525 20.625 56.5469 20.625 55.6875C20.625 54.8281 20.4639 54.0225 20.1416 53.2705C19.8193 52.5186 19.3789 51.8633 18.8203 51.3047C18.2617 50.7461 17.6064 50.3057 16.8545 49.9834C16.1025 49.6611 15.2969 49.5 14.4375 49.5C13.5781 49.5 12.7725 49.6611 12.0205 49.9834C11.2686 50.3057 10.6133 50.7461 10.0547 51.3047C9.49609 51.8633 9.05566 52.5186 8.7334 53.2705C8.41113 54.0225 8.25 54.8281 8.25 55.6875C8.25 57.9219 7.5625 59.9844 6.1875 61.875H14.4375ZM31.1309 44.8271C30.4434 43.4736 29.6377 42.335 28.7139 41.4111C27.79 40.4873 26.6514 39.6816 25.2979 38.9941L18.1758 46.1162C19.5078 46.6318 20.6787 47.3945 21.6885 48.4043C22.6982 49.4141 23.4717 50.5957 24.0088 51.9492L31.1309 44.8271ZM58.5879 17.3379C59.3828 16.543 59.7803 15.5762 59.7803 14.4375C59.7803 13.8789 59.6729 13.3525 59.458 12.8584C59.2432 12.3643 58.9531 11.9346 58.5879 11.5693C58.2227 11.2041 57.7822 10.9033 57.2666 10.667C56.751 10.4307 56.2246 10.3232 55.6875 10.3447C54.5488 10.3447 53.582 10.7422 52.7871 11.5371L28.3271 35.9648C29.6377 36.7383 30.7441 37.5762 31.6465 38.4785C32.5488 39.3809 33.3867 40.4873 34.1602 41.7979L58.5879 17.3379Z" fill="#CC8E51" stroke="#CC8E51" stroke-width="6" mask="url(#path-1-inside-1_963_5900)"/>
<ellipse cx="33.5" cy="80.5" rx="30.5" ry="4.5" fill="#E2E2E2"/>
</svg>
