<svg width="66" height="87" viewBox="0 0 66 87" fill="none" xmlns="http://www.w3.org/2000/svg">
<g clip-path="url(#clip0_963_5902)">
<path d="M0 33C0 24.2479 3.47678 15.8542 9.66548 9.66548C15.8542 3.47678 24.2479 0 33 0C41.7521 0 50.1458 3.47678 56.3345 9.66548C62.5232 15.8542 66 24.2479 66 33C66 41.7521 62.5232 50.1458 56.3345 56.3345C50.1458 62.5232 41.7521 66 33 66C24.2479 66 15.8542 62.5232 9.66548 56.3345C3.47678 50.1458 0 41.7521 0 33ZM30.9375 4.44263C28.1737 5.28413 25.4306 7.82512 23.1536 12.0945C22.4034 13.5139 21.7582 14.9863 21.2231 16.5H30.9375V4.44263ZM16.8713 16.5C17.5588 14.3089 18.4423 12.1842 19.5113 10.1516C20.2245 8.80298 21.0482 7.51571 21.9739 6.303C16.863 8.42254 12.4658 11.9609 9.30188 16.5H16.8713ZM14.4705 30.9375C14.5942 27.3199 15.0397 23.8508 15.7575 20.625H6.90525C5.36711 23.8633 4.44928 27.3612 4.19925 30.9375H14.4705ZM19.9939 20.625C19.1825 24.0067 18.7154 27.4618 18.5996 30.9375H30.9375V20.625H19.9939ZM35.0625 20.625V30.9375H47.3962C47.2819 27.4619 46.8162 24.0068 46.0061 20.625H35.0625ZM18.6038 35.0625C18.7182 38.5381 19.1839 41.9932 19.9939 45.375H30.9375V35.0625H18.6038ZM35.0625 35.0625V45.375H46.0061C46.7775 42.2194 47.2684 38.742 47.4004 35.0625H35.0625ZM21.2231 49.5C21.7924 51.0923 22.44 52.569 23.1536 53.9055C25.4306 58.1749 28.1779 60.7118 30.9375 61.5574V49.5H21.2231ZM21.9739 59.697C21.0481 58.4843 20.2244 57.1971 19.5113 55.8484C18.4424 53.8158 17.5588 51.6911 16.8713 49.5H9.30188C12.4656 54.0392 16.8629 57.5777 21.9739 59.697ZM15.7575 45.375C15.0116 41.9845 14.5807 38.5323 14.4705 35.0625H4.19925C4.455 38.7337 5.39963 42.2111 6.90525 45.375H15.7575ZM44.0261 59.697C49.1371 57.5777 53.5344 54.0392 56.6981 49.5H49.1287C48.4412 51.6911 47.5576 53.8158 46.4888 55.8484C45.7757 57.1971 44.952 58.4844 44.0261 59.697ZM35.0625 49.5V61.5574C37.8263 60.7159 40.5694 58.1749 42.8464 53.9055C43.56 52.569 44.2076 51.0923 44.7769 49.5H35.0625ZM50.2425 45.375H59.0948C60.6004 42.2111 61.545 38.7337 61.8008 35.0625H51.5295C51.4193 38.5323 50.9885 41.9845 50.2425 45.375ZM61.8008 30.9375C61.5506 27.3612 60.6328 23.8634 59.0948 20.625H50.2425C50.9603 23.8508 51.4057 27.3199 51.5295 30.9375H61.8008ZM46.4888 10.1516C47.5076 12.0656 48.3945 14.1941 49.1287 16.5H56.6981C53.5344 11.9608 49.1371 8.42234 44.0261 6.303C44.9254 7.4745 45.7504 8.76975 46.4888 10.1516ZM44.7769 16.5C44.2419 14.9863 43.5966 13.5139 42.8464 12.0945C40.5694 7.82512 37.8263 5.28825 35.0625 4.44263V16.5H44.7769Z" fill="#CC8E51"/>
<path d="M23.4679 39L22.7299 36.984H17.6359L16.8799 39H13.0279L18.4099 26.382H22.2619L27.4639 39H23.4679ZM18.6799 34.248H21.7399L20.2279 30.126L18.6799 34.248ZM33.9103 26.382C35.2543 26.382 36.4363 26.646 37.4563 27.174C38.4883 27.69 39.2863 28.428 39.8503 29.388C40.4143 30.336 40.6963 31.434 40.6963 32.682C40.6963 33.93 40.4083 35.034 39.8323 35.994C39.2563 36.954 38.4463 37.698 37.4023 38.226C36.3583 38.742 35.1523 39 33.7843 39H28.3843V26.382H33.9103ZM34.0183 36.066C34.8703 36.066 35.5603 35.76 36.0883 35.148C36.6163 34.536 36.8803 33.726 36.8803 32.718C36.8803 31.71 36.5983 30.894 36.0343 30.27C35.4703 29.646 34.7383 29.334 33.8383 29.334H32.1283V36.066H34.0183ZM51.1672 30.45C50.4952 30.054 49.7572 29.718 48.9532 29.442C48.1492 29.166 47.4892 29.028 46.9732 29.028C46.6492 29.028 46.3912 29.094 46.1992 29.226C46.0192 29.346 45.9292 29.526 45.9292 29.766C45.9292 30.102 46.1092 30.366 46.4692 30.558C46.8292 30.738 47.3992 30.936 48.1792 31.152C49.0672 31.404 49.7992 31.662 50.3752 31.926C50.9512 32.178 51.4492 32.568 51.8692 33.096C52.3012 33.624 52.5172 34.32 52.5172 35.184C52.5172 36.06 52.2832 36.804 51.8152 37.416C51.3592 38.016 50.7352 38.466 49.9432 38.766C49.1632 39.066 48.2872 39.216 47.3152 39.216C46.2352 39.216 45.1492 39.036 44.0572 38.676C42.9772 38.304 42.0412 37.8 41.2492 37.164L42.6532 34.32C43.2892 34.872 44.0632 35.34 44.9752 35.724C45.8992 36.096 46.6912 36.282 47.3512 36.282C47.7592 36.282 48.0772 36.204 48.3052 36.048C48.5332 35.892 48.6472 35.67 48.6472 35.382C48.6472 35.034 48.4612 34.77 48.0892 34.59C47.7172 34.398 47.1412 34.2 46.3612 33.996C45.4852 33.768 44.7592 33.534 44.1832 33.294C43.6072 33.042 43.1092 32.658 42.6892 32.142C42.2692 31.626 42.0592 30.948 42.0592 30.108C42.0592 29.292 42.2752 28.584 42.7072 27.984C43.1392 27.372 43.7452 26.904 44.5252 26.58C45.3172 26.256 46.2352 26.094 47.2792 26.094C48.2272 26.094 49.1692 26.232 50.1052 26.508C51.0412 26.772 51.8572 27.126 52.5532 27.57L51.1672 30.45Z" fill="white"/>
<path d="M23.4679 39L20.6507 40.0313L21.3714 42H23.4679V39ZM22.7299 36.984L25.547 35.9527L24.8264 33.984H22.7299V36.984ZM17.6359 36.984V33.984H15.5569L14.8269 35.9306L17.6359 36.984ZM16.8799 39V42H18.9589L19.6889 40.0534L16.8799 39ZM13.0279 39L10.2684 37.823L8.48678 42H13.0279V39ZM18.4099 26.382V23.382H16.428L15.6504 25.205L18.4099 26.382ZM22.2619 26.382L25.0354 25.2386L24.27 23.382H22.2619V26.382ZM27.4639 39V42H31.9456L30.2374 37.8566L27.4639 39ZM18.6799 34.248L15.8714 33.1933L14.3487 37.248H18.6799V34.248ZM21.7399 34.248V37.248H26.0358L24.5564 33.2149L21.7399 34.248ZM20.2279 30.126L23.0444 29.0929L20.261 21.5048L17.4194 29.0713L20.2279 30.126ZM26.285 37.9687L25.547 35.9527L19.9127 38.0153L20.6507 40.0313L26.285 37.9687ZM22.7299 33.984H17.6359V39.984H22.7299V33.984ZM14.8269 35.9306L14.0709 37.9466L19.6889 40.0534L20.4449 38.0374L14.8269 35.9306ZM16.8799 36H13.0279V42H16.8799V36ZM15.7873 40.177L21.1693 27.559L15.6504 25.205L10.2684 37.823L15.7873 40.177ZM18.4099 29.382H22.2619V23.382H18.4099V29.382ZM19.4883 27.5254L24.6903 40.1434L30.2374 37.8566L25.0354 25.2386L19.4883 27.5254ZM27.4639 36H23.4679V42H27.4639V36ZM18.6799 37.248H21.7399V31.248H18.6799V37.248ZM24.5564 33.2149L23.0444 29.0929L17.4114 31.1591L18.9234 35.2811L24.5564 33.2149ZM17.4194 29.0713L15.8714 33.1933L21.4884 35.3027L23.0364 31.1807L17.4194 29.0713ZM37.4563 27.174L36.0771 29.8382L36.0958 29.8479L36.1146 29.8573L37.4563 27.174ZM39.8503 29.388L37.2636 30.9076L37.2678 30.9148L37.272 30.9219L39.8503 29.388ZM39.8323 35.994L42.4047 37.5375L42.4047 37.5375L39.8323 35.994ZM37.4023 38.226L38.7315 40.9154L38.7439 40.9093L38.7562 40.9031L37.4023 38.226ZM28.3843 39H25.3843V42H28.3843V39ZM28.3843 26.382V23.382H25.3843V26.382H28.3843ZM36.0883 35.148L33.8168 33.1883L36.0883 35.148ZM36.0343 30.27L38.2599 28.2584L38.2599 28.2584L36.0343 30.27ZM32.1283 29.334V26.334H29.1283V29.334H32.1283ZM32.1283 36.066H29.1283V39.066H32.1283V36.066ZM33.9103 29.382C34.856 29.382 35.5504 29.5656 36.0771 29.8382L38.8354 24.5098C37.3221 23.7264 35.6526 23.382 33.9103 23.382V29.382ZM36.1146 29.8573C36.6477 30.1238 37.0045 30.4665 37.2636 30.9076L42.4369 27.8684C41.5681 26.3895 40.3288 25.2562 38.7979 24.4907L36.1146 29.8573ZM37.272 30.9219C37.5251 31.3473 37.6963 31.9015 37.6963 32.682H43.6963C43.6963 30.9665 43.3034 29.3247 42.4285 27.8541L37.272 30.9219ZM37.6963 32.682C37.6963 33.4503 37.5248 34.0088 37.2598 34.4505L42.4047 37.5375C43.2917 36.0592 43.6963 34.4097 43.6963 32.682H37.6963ZM37.2598 34.4505C36.9884 34.9028 36.6112 35.2642 36.0483 35.5489L38.7562 40.9031C40.2813 40.1318 41.5241 39.0051 42.4047 37.5375L37.2598 34.4505ZM36.073 35.5366C35.5087 35.8155 34.7714 36 33.7843 36V42C35.5332 42 37.2079 41.6685 38.7315 40.9154L36.073 35.5366ZM33.7843 36H28.3843V42H33.7843V36ZM31.3843 39V26.382H25.3843V39H31.3843ZM28.3843 29.382H33.9103V23.382H28.3843V29.382ZM34.0183 39.066C35.6889 39.066 37.2277 38.4199 38.3597 37.1077L33.8168 33.1883C33.8158 33.1894 33.8283 33.1749 33.8562 33.1539C33.8847 33.1324 33.9198 33.1113 33.9586 33.0941C34.043 33.0567 34.0793 33.066 34.0183 33.066V39.066ZM38.3597 37.1077C39.4653 35.8262 39.8803 34.2616 39.8803 32.718H33.8803C33.8803 32.9625 33.8481 33.0962 33.8299 33.1519C33.8145 33.1991 33.8069 33.1998 33.8168 33.1883L38.3597 37.1077ZM39.8803 32.718C39.8803 31.1222 39.4176 29.5393 38.2599 28.2584L33.8086 32.2816C33.8128 32.2862 33.8206 32.293 33.8333 32.3299C33.8488 32.3749 33.8803 32.4928 33.8803 32.718H39.8803ZM38.2599 28.2584C37.0838 26.9572 35.5197 26.334 33.8383 26.334V32.334C33.8898 32.334 33.9148 32.3384 33.9184 32.3391C33.9213 32.3397 33.9085 32.3374 33.886 32.3278C33.8631 32.318 33.8411 32.3054 33.8233 32.2925C33.8059 32.28 33.8015 32.2737 33.8086 32.2816L38.2599 28.2584ZM33.8383 26.334H32.1283V32.334H33.8383V26.334ZM29.1283 29.334V36.066H35.1283V29.334H29.1283ZM32.1283 39.066H34.0183V33.066H32.1283V39.066ZM51.1672 30.45L49.6441 33.0346L52.4554 34.6913L53.8705 31.7509L51.1672 30.45ZM46.1992 29.226L47.8633 31.7221L47.8811 31.7103L47.8988 31.6981L46.1992 29.226ZM46.4692 30.558L45.0574 33.2051L45.0923 33.2236L45.1276 33.2413L46.4692 30.558ZM48.1792 31.152L48.9982 28.266L48.989 28.2634L48.9798 28.2608L48.1792 31.152ZM50.3752 31.926L49.1252 34.6532L49.1489 34.664L49.1727 34.6745L50.3752 31.926ZM51.8692 33.096L49.5214 34.9636L49.5343 34.9797L49.5473 34.9957L51.8692 33.096ZM51.8152 37.416L49.4321 35.5936L49.4267 35.6008L51.8152 37.416ZM49.9432 38.766L48.8805 35.9605L48.8734 35.9632L48.8663 35.966L49.9432 38.766ZM44.0572 38.676L43.0802 41.5125L43.099 41.5189L43.1179 41.5252L44.0572 38.676ZM41.2492 37.164L38.5591 35.836L37.4931 37.9953L39.3708 39.5031L41.2492 37.164ZM42.6532 34.32L44.6196 32.0543L41.6839 29.5064L39.9631 32.992L42.6532 34.32ZM44.9752 35.724L43.811 38.4889L43.8328 38.4981L43.8548 38.5069L44.9752 35.724ZM48.0892 34.59L46.7133 37.2559L46.7477 37.2736L46.7825 37.2905L48.0892 34.59ZM46.3612 33.996L47.1203 31.0936L47.1168 31.0927L46.3612 33.996ZM44.1832 33.294L42.9807 36.0425L43.005 36.0531L43.0294 36.0632L44.1832 33.294ZM42.6892 32.142L40.3625 34.0358L40.3625 34.0358L42.6892 32.142ZM42.7072 27.984L45.1418 29.7369L45.15 29.7255L45.1581 29.714L42.7072 27.984ZM44.5252 26.58L43.3893 23.8034L43.3818 23.8064L43.3744 23.8095L44.5252 26.58ZM50.1052 26.508L49.2567 29.3855L49.2737 29.3905L49.2908 29.3953L50.1052 26.508ZM52.5532 27.57L55.2565 28.8709L56.4108 26.4724L54.1666 25.0408L52.5532 27.57ZM52.6903 27.8654C51.8295 27.3581 50.9054 26.9403 49.9273 26.6045L47.9791 32.2795C48.609 32.4957 49.1609 32.7499 49.6441 33.0346L52.6903 27.8654ZM49.9273 26.6045C48.9853 26.2812 47.9658 26.028 46.9732 26.028V32.028C46.9698 32.028 46.9901 32.0279 47.0376 32.0334C47.0847 32.039 47.1519 32.0493 47.2412 32.068C47.4227 32.1059 47.6662 32.172 47.9791 32.2795L49.9273 26.6045ZM46.9732 26.028C46.2719 26.028 45.3524 26.1676 44.4996 26.7539L47.8988 31.6981C47.4301 32.0204 47.0265 32.028 46.9732 32.028V26.028ZM44.5351 26.7298C43.4185 27.4743 42.9292 28.6521 42.9292 29.766H48.9292C48.9292 30.0228 48.8797 30.3932 48.68 30.7926C48.4741 31.2045 48.1741 31.515 47.8633 31.7221L44.5351 26.7298ZM42.9292 29.766C42.9292 31.4673 43.97 32.6251 45.0574 33.2051L47.881 27.9109C48.0134 27.9816 48.2946 28.1619 48.5429 28.526C48.8106 28.9186 48.9292 29.3639 48.9292 29.766H42.9292ZM45.1276 33.2413C45.7582 33.5566 46.5592 33.8163 47.3786 34.0432L48.9798 28.2608C48.2392 28.0557 47.9002 27.9194 47.8108 27.8747L45.1276 33.2413ZM47.3602 34.038C48.1609 34.2653 48.7358 34.4747 49.1252 34.6532L51.6252 29.1988C50.8626 28.8493 49.9735 28.5427 48.9982 28.266L47.3602 34.038ZM49.1727 34.6745C49.2684 34.7163 49.3829 34.7894 49.5214 34.9636L54.217 31.2284C53.5155 30.3466 52.634 29.6397 51.5777 29.1775L49.1727 34.6745ZM49.5473 34.9957C49.5274 34.9714 49.512 34.9474 49.5013 34.9272C49.4908 34.9073 49.4883 34.8977 49.49 34.9032C49.4939 34.9156 49.5172 34.9992 49.5172 35.184H55.5172C55.5172 33.816 55.1678 32.39 54.1911 31.1963L49.5473 34.9957ZM49.5172 35.184C49.5172 35.4959 49.4461 35.5754 49.4321 35.5937L54.1983 39.2383C55.1203 38.0326 55.5172 36.6241 55.5172 35.184H49.5172ZM49.4267 35.6008C49.352 35.6991 49.2135 35.8344 48.8805 35.9605L51.0059 41.5715C52.2569 41.0976 53.3664 40.3329 54.2037 39.2312L49.4267 35.6008ZM48.8663 35.966C48.4811 36.1141 47.9781 36.216 47.3152 36.216V42.216C48.5963 42.216 49.8453 42.0179 51.0201 41.566L48.8663 35.966ZM47.3152 36.216C46.5744 36.216 45.8051 36.0934 44.9965 35.8268L43.1179 41.5252C44.4934 41.9786 45.896 42.216 47.3152 42.216V36.216ZM45.0342 35.8395C44.2407 35.5662 43.6187 35.2192 43.1276 34.8249L39.3708 39.5031C40.4637 40.3808 41.7137 41.0418 43.0802 41.5125L45.0342 35.8395ZM43.9393 38.492L45.3433 35.648L39.9631 32.992L38.5591 35.836L43.9393 38.492ZM40.6868 36.5857C41.5998 37.3781 42.6568 38.0029 43.811 38.4889L46.1394 32.9591C45.4697 32.6771 44.9786 32.3659 44.6196 32.0543L40.6868 36.5857ZM43.8548 38.5069C44.9714 38.9565 46.1635 39.282 47.3512 39.282V33.282C47.219 33.282 46.827 33.2355 46.0956 32.9411L43.8548 38.5069ZM47.3512 39.282C48.0909 39.282 49.0866 39.1484 49.9993 38.5239L46.6112 33.5721C46.8441 33.4127 47.0533 33.3412 47.181 33.3099C47.3049 33.2795 47.3706 33.282 47.3512 33.282V39.282ZM49.9993 38.5239C51.0851 37.781 51.6472 36.6101 51.6472 35.382H45.6472C45.6472 35.123 45.7009 34.7681 45.893 34.3941C46.0875 34.0152 46.3583 33.7451 46.6112 33.5721L49.9993 38.5239ZM51.6472 35.382C51.6472 34.64 51.4375 33.8727 50.9602 33.1951C50.5031 32.5464 49.9149 32.1407 49.3959 31.8895L46.7825 37.2905C46.6355 37.2193 46.3263 37.0356 46.0553 36.6509C45.7639 36.2373 45.6472 35.776 45.6472 35.382H51.6472ZM49.4651 31.9241C48.7914 31.5764 47.956 31.3122 47.1203 31.0936L45.6021 36.8984C45.941 36.987 46.2046 37.0664 46.403 37.1346C46.501 37.1683 46.5759 37.1968 46.6306 37.2193C46.6576 37.2304 46.6779 37.2393 46.6922 37.2458C46.6992 37.2491 46.7045 37.2516 46.7081 37.2533C46.7117 37.2551 46.7134 37.2559 46.7133 37.2559L49.4651 31.9241ZM47.1168 31.0927C46.3219 30.8858 45.7402 30.6928 45.337 30.5248L43.0294 36.0632C43.7782 36.3752 44.6485 36.6502 45.6056 36.8993L47.1168 31.0927ZM45.3857 30.5455C45.2725 30.496 45.1525 30.4161 45.0159 30.2482L40.3625 34.0358C41.0659 34.8999 41.9419 35.588 42.9807 36.0425L45.3857 30.5455ZM45.0159 30.2482C45.0376 30.2748 45.0547 30.3015 45.0669 30.3246C45.0789 30.3474 45.0829 30.3605 45.0824 30.3589C45.081 30.3544 45.0592 30.2807 45.0592 30.108H39.0592C39.0592 31.4528 39.4029 32.8569 40.3625 34.0358L45.0159 30.2482ZM45.0592 30.108C45.0592 29.8527 45.1155 29.7735 45.1418 29.7369L40.2726 26.2311C39.4349 27.3945 39.0592 28.7313 39.0592 30.108H45.0592ZM45.1581 29.714C45.2233 29.6217 45.3503 29.4858 45.676 29.3505L43.3744 23.8095C42.1401 24.3222 41.0551 25.1223 40.2563 26.2539L45.1581 29.714ZM45.6611 29.3566C46.0227 29.2087 46.5414 29.094 47.2792 29.094V23.094C45.929 23.094 44.6117 23.3033 43.3893 23.8034L45.6611 29.3566ZM47.2792 29.094C47.9316 29.094 48.5881 29.1883 49.2567 29.3855L50.9537 23.6305C49.7503 23.2757 48.5228 23.094 47.2792 23.094V29.094ZM49.2908 29.3953C49.9932 29.5935 50.5306 29.8382 50.9398 30.0992L54.1666 25.0408C53.1838 24.4138 52.0892 23.9505 50.9196 23.6207L49.2908 29.3953ZM49.85 26.2691L48.464 29.1491L53.8705 31.7509L55.2565 28.8709L49.85 26.2691Z" fill="#CC8E51"/>
</g>
<ellipse cx="33.5" cy="82.5" rx="30.5" ry="4.5" fill="#E2E2E2"/>
<defs>
<clipPath id="clip0_963_5902">
<rect width="66" height="66" fill="white"/>
</clipPath>
</defs>
</svg>
