<svg width="84" height="81" viewBox="0 0 84 81" fill="none" xmlns="http://www.w3.org/2000/svg">
<mask id="path-1-inside-1_963_5901" fill="white">
<path fill-rule="evenodd" clip-rule="evenodd" d="M24.0441 40.792H19.9062V18.2375C21.3986 17.9662 23.4675 17.7627 26.2826 17.7627C29.3352 17.7627 31.5737 18.4071 33.0321 19.6281C34.3888 20.7474 35.2706 22.5449 35.2706 24.6816C35.2706 26.8522 34.5923 28.6498 33.3035 29.8708C31.6415 31.5327 29.03 32.3128 26.0791 32.3128C25.299 32.3128 24.5867 32.2789 24.0441 32.1772V40.792ZM26.4522 20.9509C25.299 20.9509 24.485 21.0526 24.0441 21.1544V28.8872C24.5528 29.0229 25.2312 29.0568 26.0791 29.0568C29.1995 29.0568 31.0989 27.5306 31.0989 24.8512C31.0989 22.3075 29.3352 20.9509 26.4522 20.9509Z"/>
</mask>
<path fill-rule="evenodd" clip-rule="evenodd" d="M24.0441 40.792H19.9062V18.2375C21.3986 17.9662 23.4675 17.7627 26.2826 17.7627C29.3352 17.7627 31.5737 18.4071 33.0321 19.6281C34.3888 20.7474 35.2706 22.5449 35.2706 24.6816C35.2706 26.8522 34.5923 28.6498 33.3035 29.8708C31.6415 31.5327 29.03 32.3128 26.0791 32.3128C25.299 32.3128 24.5867 32.2789 24.0441 32.1772V40.792ZM26.4522 20.9509C25.299 20.9509 24.485 21.0526 24.0441 21.1544V28.8872C24.5528 29.0229 25.2312 29.0568 26.0791 29.0568C29.1995 29.0568 31.0989 27.5306 31.0989 24.8512C31.0989 22.3075 29.3352 20.9509 26.4522 20.9509Z" fill="#CC8E51"/>
<path d="M24.0441 40.792V45.792H29.0441V40.792H24.0441ZM19.9062 40.792H14.9062V45.792H19.9062V40.792ZM19.9062 18.2375L19.0118 13.3182L14.9062 14.0646V18.2375H19.9062ZM33.0321 19.6281L29.8224 23.4619L29.8363 23.4735L29.8502 23.485L33.0321 19.6281ZM33.3035 29.8708L29.8647 26.2411L29.8157 26.2875L29.7679 26.3353L33.3035 29.8708ZM24.0441 32.1772L24.9655 27.2628L19.0441 26.1525V32.1772H24.0441ZM24.0441 21.1544L22.9198 16.2824L19.0441 17.1768V21.1544H24.0441ZM24.0441 28.8872H19.0441V32.7286L22.7558 33.7184L24.0441 28.8872ZM24.0441 35.792H19.9062V45.792H24.0441V35.792ZM24.9062 40.792V18.2375H14.9062V40.792H24.9062ZM20.8007 23.1569C21.937 22.9503 23.6985 22.7627 26.2826 22.7627V12.7627C23.2365 12.7627 20.8602 12.9821 19.0118 13.3182L20.8007 23.1569ZM26.2826 22.7627C28.7583 22.7627 29.6345 23.3046 29.8224 23.4619L36.2418 15.7943C33.5129 13.5097 29.9121 12.7627 26.2826 12.7627V22.7627ZM29.8502 23.485C29.982 23.5937 30.2706 23.9395 30.2706 24.6816H40.2706C40.2706 21.1504 38.7955 17.901 36.214 15.7712L29.8502 23.485ZM30.2706 24.6816C30.2706 25.8168 29.9358 26.1737 29.8647 26.2411L36.7422 33.5006C39.2488 31.1259 40.2706 27.8876 40.2706 24.6816H30.2706ZM29.7679 26.3353C29.3961 26.7071 28.3032 27.3128 26.0791 27.3128V37.3128C29.7567 37.3128 33.887 36.3584 36.839 33.4064L29.7679 26.3353ZM26.0791 27.3128C25.7554 27.3128 25.4906 27.3056 25.2806 27.2926C25.1775 27.2863 25.0984 27.2792 25.0409 27.2727C24.9822 27.2661 24.9591 27.2616 24.9655 27.2628L23.1226 37.0915C24.1392 37.2821 25.2322 37.3128 26.0791 37.3128V27.3128ZM19.0441 32.1772V40.792H29.0441V32.1772H19.0441ZM26.4522 15.9509C25.0583 15.9509 23.843 16.0694 22.9198 16.2824L25.1684 26.0263C25.1178 26.038 25.2037 26.0157 25.4526 25.9922C25.6862 25.97 26.0201 25.9509 26.4522 25.9509V15.9509ZM19.0441 21.1544V28.8872H29.0441V21.1544H19.0441ZM22.7558 33.7184C23.9686 34.0418 25.2476 34.0568 26.0791 34.0568V24.0568C25.7072 24.0568 25.4671 24.0488 25.3083 24.0369C25.1396 24.0243 25.1779 24.0149 25.3324 24.0561L22.7558 33.7184ZM26.0791 34.0568C28.3878 34.0568 30.9117 33.4968 32.9489 31.8092C35.115 30.0148 36.0989 27.4668 36.0989 24.8512H26.0989C26.0989 24.9277 26.0867 24.8314 26.1705 24.6392C26.2597 24.4349 26.4046 24.2449 26.5694 24.1084C26.7224 23.9817 26.8119 23.9667 26.7439 23.9871C26.6699 24.0093 26.4604 24.0568 26.0791 24.0568V34.0568ZM36.0989 24.8512C36.0989 22.3302 35.166 19.8349 33.0272 18.0809C31.0362 16.4482 28.5987 15.9509 26.4522 15.9509V25.9509C26.791 25.9509 26.9576 25.9918 26.991 26.0015C27.0178 26.0094 26.8819 25.9739 26.6861 25.8134C26.4763 25.6413 26.2994 25.4077 26.1914 25.1589C26.09 24.9252 26.0989 24.794 26.0989 24.8512H36.0989Z" fill="#CC8E51" mask="url(#path-1-inside-1_963_5901)"/>
<mask id="path-3-inside-2_963_5901" fill="white">
<path d="M40.5988 41.165C38.5977 41.165 36.8001 40.6562 35.5791 39.9779L36.3931 36.9593C37.3428 37.5359 39.1404 38.1464 40.6327 38.1464C42.4642 38.1464 43.2782 37.4002 43.2782 36.3149C43.2782 35.1956 42.5999 34.619 40.5649 33.9068C37.3428 32.7875 35.9861 31.0239 36.02 29.0906C36.02 26.1738 38.4281 23.9014 42.2607 23.9014C44.0922 23.9014 45.6863 24.3762 46.6359 24.8849L45.8219 27.8357C45.1097 27.4287 43.7869 26.886 42.3285 26.886C40.8362 26.886 40.0222 27.5983 40.0222 28.6158C40.0222 29.6672 40.8023 30.1759 42.9051 30.9221C45.8898 32.0074 47.2803 33.5337 47.3143 35.9757C47.3143 38.9604 44.974 41.165 40.5988 41.165Z"/>
</mask>
<path d="M40.5988 41.165C38.5977 41.165 36.8001 40.6562 35.5791 39.9779L36.3931 36.9593C37.3428 37.5359 39.1404 38.1464 40.6327 38.1464C42.4642 38.1464 43.2782 37.4002 43.2782 36.3149C43.2782 35.1956 42.5999 34.619 40.5649 33.9068C37.3428 32.7875 35.9861 31.0239 36.02 29.0906C36.02 26.1738 38.4281 23.9014 42.2607 23.9014C44.0922 23.9014 45.6863 24.3762 46.6359 24.8849L45.8219 27.8357C45.1097 27.4287 43.7869 26.886 42.3285 26.886C40.8362 26.886 40.0222 27.5983 40.0222 28.6158C40.0222 29.6672 40.8023 30.1759 42.9051 30.9221C45.8898 32.0074 47.2803 33.5337 47.3143 35.9757C47.3143 38.9604 44.974 41.165 40.5988 41.165Z" fill="#CC8E51"/>
<path d="M35.5791 39.9779L30.7515 38.6761L29.7338 42.4503L33.1509 44.3487L35.5791 39.9779ZM36.3931 36.9593L38.988 32.6853L33.2985 29.231L31.5655 35.6575L36.3931 36.9593ZM40.5649 33.9068L42.2166 29.1875L42.2055 29.1836L40.5649 33.9068ZM36.02 29.0906L41.0192 29.1783L41.02 29.1345V29.0906H36.02ZM46.6359 24.8849L51.4559 26.2146L52.5182 22.3639L48.997 20.4775L46.6359 24.8849ZM45.8219 27.8357L43.3412 32.1769L48.9301 35.3706L50.6419 29.1653L45.8219 27.8357ZM42.9051 30.9221L44.6138 26.2231L44.5955 26.2165L44.5771 26.21L42.9051 30.9221ZM47.3143 35.9757H52.3143V35.941L52.3138 35.9063L47.3143 35.9757ZM40.5988 36.165C39.3791 36.165 38.428 35.8408 38.0073 35.6071L33.1509 44.3487C35.1722 45.4716 37.8163 46.165 40.5988 46.165V36.165ZM40.4067 41.2797L41.2207 38.2611L31.5655 35.6575L30.7515 38.6761L40.4067 41.2797ZM33.7982 41.2332C35.4292 42.2234 38.114 43.1464 40.6327 43.1464V33.1464C40.5078 33.1464 40.1821 33.1097 39.7363 32.977C39.5339 32.9167 39.3504 32.8494 39.2023 32.7865C39.046 32.72 38.9778 32.6791 38.988 32.6853L33.7982 41.2332ZM40.6327 43.1464C42.1197 43.1464 44.0017 42.86 45.6297 41.647C47.4726 40.2739 48.2782 38.2482 48.2782 36.3149H38.2782C38.2782 35.9571 38.3473 35.4623 38.5998 34.9268C38.859 34.3768 39.2404 33.937 39.6548 33.6282C40.4179 33.0597 40.9772 33.1464 40.6327 33.1464V43.1464ZM48.2782 36.3149C48.2782 34.4655 47.5962 32.62 45.9878 31.2046C44.779 30.1409 43.288 29.5625 42.2166 29.1875L38.9131 38.6261C39.3228 38.7695 39.5418 38.8643 39.644 38.9145C39.7524 38.9677 39.6112 38.9139 39.3815 38.7118C39.1161 38.4782 38.7818 38.0894 38.5447 37.5362C38.3148 36.9997 38.2782 36.5457 38.2782 36.3149H48.2782ZM42.2055 29.1836C41.6763 28.9998 41.3188 28.822 41.0906 28.6831C40.8638 28.545 40.789 28.4603 40.7936 28.4655C40.804 28.477 40.8749 28.5627 40.9367 28.7254C40.9993 28.8901 41.0215 29.0521 41.0192 29.1783L31.0208 29.0029C30.9329 34.012 34.6834 37.1568 38.9242 38.6299L42.2055 29.1836ZM41.02 29.0906C41.02 29.0582 41.0246 29.0822 41.0015 29.1325C40.9787 29.1823 40.9553 29.2 40.9693 29.188C40.9884 29.1715 41.323 28.9014 42.2607 28.9014V18.9014C39.3658 18.9014 36.5801 19.7675 34.437 21.6164C32.2566 23.4975 31.02 26.1761 31.02 29.0906H41.02ZM42.2607 28.9014C42.7507 28.9014 43.2086 28.9658 43.5923 29.0595C43.9918 29.1571 44.2234 29.2648 44.2748 29.2923L48.997 20.4775C47.2836 19.5596 44.8723 18.9014 42.2607 18.9014V28.9014ZM41.816 23.5553L41.002 26.5061L50.6419 29.1653L51.4559 26.2146L41.816 23.5553ZM48.3026 23.4945C47.0987 22.8065 44.9174 21.886 42.3285 21.886V31.886C42.4512 31.886 42.6409 31.9116 42.8752 31.9842C43.1108 32.0573 43.2852 32.1449 43.3412 32.1769L48.3026 23.4945ZM42.3285 21.886C40.8497 21.886 39.0651 22.2337 37.5342 23.4318C35.8747 24.7306 35.0222 26.6453 35.0222 28.6158H45.0222C45.0222 29.5688 44.5767 30.6186 43.6973 31.3069C43.3191 31.6028 42.9645 31.748 42.7263 31.8168C42.4911 31.8847 42.3456 31.886 42.3285 31.886V21.886ZM35.0222 28.6158C35.0222 29.5236 35.1976 30.5597 35.7255 31.5917C36.2445 32.6065 36.9596 33.334 37.6283 33.8479C38.789 34.7399 40.2152 35.2731 41.2331 35.6343L44.5771 26.21C44.1109 26.0445 43.8253 25.9295 43.6508 25.8495C43.4643 25.764 43.5397 25.7789 43.7219 25.9189C43.9327 26.0809 44.3213 26.4375 44.6284 27.0378C44.9443 27.6554 45.0222 28.2336 45.0222 28.6158H35.0222ZM41.1964 35.6211C41.7155 35.8099 42.0503 35.9769 42.256 36.1016C42.4563 36.2231 42.4961 36.2813 42.4653 36.2463C42.4238 36.1992 42.3654 36.1104 42.3279 36.0065C42.2942 35.9132 42.3128 35.9055 42.3147 36.0451L52.3138 35.9063C52.2825 33.6506 51.5802 31.464 49.9671 29.634C48.471 27.9367 46.5109 26.913 44.6138 26.2231L41.1964 35.6211ZM42.3143 35.9757C42.3143 36.0614 42.2996 36.0392 42.3367 35.9584C42.3535 35.9219 42.3749 35.887 42.3978 35.8576C42.4205 35.8285 42.4362 35.8156 42.435 35.8166C42.4347 35.8168 42.3319 35.9013 42.0418 35.9893C41.7475 36.0786 41.2791 36.165 40.5988 36.165V46.165C43.5788 46.165 46.4909 45.4148 48.7595 43.5626C51.1245 41.6316 52.3143 38.8767 52.3143 35.9757H42.3143Z" fill="#CC8E51" mask="url(#path-3-inside-2_963_5901)"/>
<mask id="path-5-inside-3_963_5901" fill="white">
<path fill-rule="evenodd" clip-rule="evenodd" d="M49.2128 1.73482C38.5241 0.540216 27.4756 0.540216 16.7869 1.73482C10.5831 2.4282 5.57471 7.31532 4.84532 13.5515C3.56719 24.4798 3.56719 35.5196 4.84532 46.4479C5.57471 52.6839 10.5831 57.5713 16.7869 58.2645C27.4756 59.4593 38.5241 59.4593 49.2128 58.2645C55.4164 57.5713 60.425 52.6839 61.1542 46.4479C62.4325 35.5196 62.4325 24.4798 61.1542 13.5515C60.425 7.31532 55.4167 2.4282 49.2128 1.73482ZM17.3006 6.33121C27.6479 5.17474 38.3517 5.17474 48.6991 6.33121C52.8002 6.78958 56.0855 10.0259 56.5606 14.0887C57.7971 24.6601 57.7971 35.3393 56.5606 45.9108C56.0855 49.9734 52.8002 53.21 48.6991 53.6681C38.3517 54.8247 27.6479 54.8247 17.3006 53.6681C13.1995 53.21 9.9142 49.9734 9.43902 45.9108C8.20261 35.3393 8.20261 24.6601 9.43902 14.0887C9.9142 10.0259 13.1995 6.78958 17.3006 6.33121Z"/>
</mask>
<path fill-rule="evenodd" clip-rule="evenodd" d="M49.2128 1.73482C38.5241 0.540216 27.4756 0.540216 16.7869 1.73482C10.5831 2.4282 5.57471 7.31532 4.84532 13.5515C3.56719 24.4798 3.56719 35.5196 4.84532 46.4479C5.57471 52.6839 10.5831 57.5713 16.7869 58.2645C27.4756 59.4593 38.5241 59.4593 49.2128 58.2645C55.4164 57.5713 60.425 52.6839 61.1542 46.4479C62.4325 35.5196 62.4325 24.4798 61.1542 13.5515C60.425 7.31532 55.4167 2.4282 49.2128 1.73482ZM17.3006 6.33121C27.6479 5.17474 38.3517 5.17474 48.6991 6.33121C52.8002 6.78958 56.0855 10.0259 56.5606 14.0887C57.7971 24.6601 57.7971 35.3393 56.5606 45.9108C56.0855 49.9734 52.8002 53.21 48.6991 53.6681C38.3517 54.8247 27.6479 54.8247 17.3006 53.6681C13.1995 53.21 9.9142 49.9734 9.43902 45.9108C8.20261 35.3393 8.20261 24.6601 9.43902 14.0887C9.9142 10.0259 13.1995 6.78958 17.3006 6.33121Z" fill="#CC8E51"/>
<path d="M49.2128 1.73482L49.7681 -3.23424L49.2128 1.73482ZM16.7869 1.73482L16.2316 -3.23424L16.2315 -3.23424L16.7869 1.73482ZM4.84532 13.5515L-0.120827 12.9706L-0.120831 12.9706L4.84532 13.5515ZM4.84532 46.4479L-0.120831 47.0287L-0.120826 47.0288L4.84532 46.4479ZM16.7869 58.2645L17.3424 53.2954L17.3421 53.2954L16.7869 58.2645ZM49.2128 58.2645L48.6576 53.2954L48.6573 53.2954L49.2128 58.2645ZM61.1542 46.4479L56.1881 45.867L56.188 45.8672L61.1542 46.4479ZM61.1542 13.5515L56.188 14.1322L56.1881 14.1324L61.1542 13.5515ZM17.3006 6.33121L16.7453 1.36215L16.7453 1.36215L17.3006 6.33121ZM48.6991 6.33121L49.2544 1.36215L49.2544 1.36215L48.6991 6.33121ZM56.5606 14.0887L51.5945 14.6695L51.5945 14.6696L56.5606 14.0887ZM56.5606 45.9108L51.5945 45.33V45.33L56.5606 45.9108ZM48.6991 53.6681L48.1439 48.6991L48.1437 48.6991L48.6991 53.6681ZM17.3006 53.6681L17.856 48.6991L17.8558 48.6991L17.3006 53.6681ZM9.43902 45.9108L4.47287 46.4916L4.47288 46.4916L9.43902 45.9108ZM9.43902 14.0887L14.4052 14.6696L14.4052 14.6695L9.43902 14.0887ZM49.7681 -3.23424C38.7103 -4.4701 27.2893 -4.4701 16.2316 -3.23424L17.3423 6.70388C27.6618 5.55053 38.3378 5.55053 48.6574 6.70388L49.7681 -3.23424ZM16.2315 -3.23424C7.75589 -2.28695 0.883526 4.38363 -0.120827 12.9706L9.81147 14.1323C10.2659 10.247 13.4102 7.14335 17.3423 6.70388L16.2315 -3.23424ZM-0.120831 12.9706C-1.4441 24.2848 -1.4441 35.7146 -0.120831 47.0287L9.81147 45.8671C8.57847 35.3247 8.57847 24.6747 9.81147 14.1323L-0.120831 12.9706ZM-0.120826 47.0288C0.883513 55.6155 7.75578 62.2866 16.2317 63.2336L17.3421 53.2954C13.4103 52.8561 10.2659 49.7524 9.81146 45.867L-0.120826 47.0288ZM16.2315 63.2335C27.2893 64.4696 38.7104 64.4696 49.7682 63.2335L48.6573 53.2954C38.3378 54.4489 27.6619 54.4489 17.3424 53.2954L16.2315 63.2335ZM49.768 63.2335C58.2436 62.2866 65.1162 55.6155 66.1204 47.0286L56.188 45.8672C55.7337 49.7523 52.5892 52.8561 48.6576 53.2954L49.768 63.2335ZM66.1203 47.0288C67.4438 35.7146 67.4438 24.2848 66.1203 12.9705L56.1881 14.1324C57.4213 24.6747 57.4213 35.3247 56.1881 45.867L66.1203 47.0288ZM66.1204 12.9707C65.1162 4.38365 58.2439 -2.28695 49.7681 -3.23424L48.6574 6.70388C52.5896 7.14336 55.7337 10.247 56.188 14.1322L66.1204 12.9707ZM17.856 11.3003C27.8342 10.1851 38.1654 10.1851 48.1437 11.3003L49.2544 1.36215C38.538 0.16443 27.4617 0.16443 16.7453 1.36215L17.856 11.3003ZM48.1437 11.3003C49.9697 11.5043 51.3939 12.9542 51.5945 14.6695L61.5268 13.5079C60.7771 7.09756 55.6308 2.07481 49.2544 1.36215L48.1437 11.3003ZM51.5945 14.6696C52.7858 24.8551 52.7858 35.1443 51.5945 45.33L61.5268 46.4916C62.8083 35.5342 62.8083 24.4652 61.5268 13.5079L51.5945 14.6696ZM51.5945 45.33C51.3939 47.0452 49.9695 48.4951 48.1439 48.6991L49.2542 58.6372C55.6309 57.9248 60.7771 52.9015 61.5268 46.4916L51.5945 45.33ZM48.1437 48.6991C38.1654 49.8144 27.8342 49.8144 17.856 48.6991L16.7452 58.6372C27.4616 59.835 38.538 59.835 49.2545 58.6372L48.1437 48.6991ZM17.8558 48.6991C16.0302 48.4951 14.6058 47.0452 14.4052 45.3299L4.47288 46.4916C5.2226 52.9015 10.3687 57.9248 16.7455 58.6372L17.8558 48.6991ZM14.4052 45.33C13.2139 35.1443 13.2139 24.8551 14.4052 14.6696L4.47287 13.5079C3.19132 24.4652 3.19132 35.5342 4.47287 46.4916L14.4052 45.33ZM14.4052 14.6695C14.6058 12.9542 16.03 11.5043 17.856 11.3003L16.7453 1.36215C10.3689 2.07481 5.2226 7.09757 4.47287 13.5079L14.4052 14.6695Z" fill="#CC8E51" mask="url(#path-5-inside-3_963_5901)"/>
<path d="M67.1141 68.1564L61.9305 62.6505L60.6114 61.2493L59.5747 62.8705L57.0877 66.7594L50.1567 46.1339L51.3606 46.5936L51.3643 46.5863L70.4258 54.0649L66.4134 56.3512L64.75 57.2991L66.0683 58.6874L71.2867 64.1829L67.1141 68.1564Z" fill="white" stroke="#CC8E51" stroke-width="3"/>
<ellipse cx="33.5" cy="76.5" rx="33.5" ry="4.5" fill="#E2E2E2"/>
</svg>
