<svg width="58" height="56" viewBox="0 0 58 56" fill="none" xmlns="http://www.w3.org/2000/svg">
<mask id="path-1-inside-1_67_80" fill="white">
<path fill-rule="evenodd" clip-rule="evenodd" d="M14.6493 28.8368H11.6627V12.5577C12.7398 12.3618 14.2331 12.215 16.265 12.215C18.4682 12.215 20.0839 12.6801 21.1366 13.5614C22.1158 14.3692 22.7522 15.6666 22.7522 17.2088C22.7522 18.7755 22.2626 20.0729 21.3324 20.9542C20.1329 22.1537 18.2479 22.7168 16.1181 22.7168C15.555 22.7168 15.041 22.6923 14.6493 22.6189V28.8368ZM16.3874 14.5161C15.555 14.5161 14.9675 14.5895 14.6493 14.663V20.2443C15.0165 20.3422 15.5061 20.3667 16.1181 20.3667C18.3703 20.3667 19.7412 19.2651 19.7412 17.3312C19.7412 15.4953 18.4682 14.5161 16.3874 14.5161Z"/>
</mask>
<path fill-rule="evenodd" clip-rule="evenodd" d="M14.6493 28.8368H11.6627V12.5577C12.7398 12.3618 14.2331 12.215 16.265 12.215C18.4682 12.215 20.0839 12.6801 21.1366 13.5614C22.1158 14.3692 22.7522 15.6666 22.7522 17.2088C22.7522 18.7755 22.2626 20.0729 21.3324 20.9542C20.1329 22.1537 18.2479 22.7168 16.1181 22.7168C15.555 22.7168 15.041 22.6923 14.6493 22.6189V28.8368ZM16.3874 14.5161C15.555 14.5161 14.9675 14.5895 14.6493 14.663V20.2443C15.0165 20.3422 15.5061 20.3667 16.1181 20.3667C18.3703 20.3667 19.7412 19.2651 19.7412 17.3312C19.7412 15.4953 18.4682 14.5161 16.3874 14.5161Z" fill="#CC8E51"/>
<path d="M14.6493 28.8368V33.8368H19.6493V28.8368H14.6493ZM11.6627 28.8368H6.66272V33.8368H11.6627V28.8368ZM11.6627 12.5577L10.7683 7.63834L6.66272 8.3848V12.5577H11.6627ZM21.1366 13.5614L17.9269 17.3952L17.9407 17.4067L17.9546 17.4182L21.1366 13.5614ZM21.3324 20.9542L17.8937 17.3245L17.8446 17.3709L17.7969 17.4187L21.3324 20.9542ZM14.6493 22.6189L15.5707 17.7045L9.64928 16.5942V22.6189H14.6493ZM14.6493 14.663L13.525 9.791L9.64928 10.6854V14.663H14.6493ZM14.6493 20.2443H9.64928V24.0857L13.361 25.0755L14.6493 20.2443ZM14.6493 23.8368H11.6627V33.8368H14.6493V23.8368ZM16.6627 28.8368V12.5577H6.66272V28.8368H16.6627ZM12.5571 17.477C13.2782 17.3459 14.4641 17.215 16.265 17.215V7.21497C14.0022 7.21497 12.2014 7.37777 10.7683 7.63834L12.5571 17.477ZM16.265 17.215C17.0308 17.215 17.5156 17.2975 17.7875 17.3735C18.0489 17.4465 18.0434 17.4927 17.9269 17.3952L24.3462 9.72757C22.0231 7.78263 19.0452 7.21497 16.265 7.21497V17.215ZM17.9546 17.4182C17.8395 17.3232 17.7841 17.2322 17.7613 17.1821C17.7371 17.129 17.7522 17.1298 17.7522 17.2088H27.7522C27.7522 14.2721 26.5225 11.5228 24.3185 9.7045L17.9546 17.4182ZM17.7522 17.2088C17.7522 17.4762 17.7102 17.581 17.7151 17.568C17.7179 17.5606 17.7314 17.5279 17.7629 17.4797C17.7949 17.4308 17.8386 17.3766 17.8937 17.3245L24.7711 24.584C26.9191 22.549 27.7522 19.8109 27.7522 17.2088H17.7522ZM17.7969 17.4187C17.8529 17.3626 17.8073 17.4389 17.5176 17.5338C17.223 17.6303 16.7586 17.7168 16.1181 17.7168V27.7168C18.9747 27.7168 22.3783 26.9794 24.8679 24.4898L17.7969 17.4187ZM16.1181 17.7168C15.9029 17.7168 15.7419 17.7119 15.6275 17.7049C15.5029 17.6972 15.4962 17.6905 15.5707 17.7045L13.7278 27.5332C14.5934 27.6955 15.4883 27.7168 16.1181 27.7168V17.7168ZM9.64928 22.6189V28.8368H19.6493V22.6189H9.64928ZM16.3874 9.51608C15.3143 9.51608 14.3255 9.60627 13.525 9.791L15.7736 19.5349C15.6617 19.5607 15.6602 19.5527 15.7971 19.5397C15.9187 19.5282 16.1157 19.5161 16.3874 19.5161V9.51608ZM9.64928 14.663V20.2443H19.6493V14.663H9.64928ZM13.361 25.0755C14.4323 25.3612 15.5225 25.3667 16.1181 25.3667V15.3667C15.9967 15.3667 15.8997 15.3655 15.8209 15.3633C15.7417 15.3611 15.6923 15.3582 15.6658 15.3562C15.6387 15.3542 15.6497 15.3541 15.6893 15.3601C15.7283 15.3659 15.8157 15.3806 15.9376 15.4131L13.361 25.0755ZM16.1181 25.3667C17.9927 25.3667 20.1675 24.9128 21.964 23.4246C23.8894 21.8295 24.7412 19.5741 24.7412 17.3312H14.7412C14.7412 17.2213 14.762 16.9588 14.909 16.6219C15.0612 16.2729 15.2994 15.96 15.5845 15.7238C16.1325 15.2698 16.4957 15.3667 16.1181 15.3667V25.3667ZM24.7412 17.3312C24.7412 15.1641 23.931 12.9401 22.0152 11.369C20.2471 9.91904 18.1328 9.51608 16.3874 9.51608V19.5161C16.7227 19.5161 16.2854 19.6027 15.674 19.1014C15.3528 18.8379 15.0895 18.4908 14.923 18.107C14.763 17.7385 14.7412 17.451 14.7412 17.3312H24.7412Z" fill="#F9F360" mask="url(#path-1-inside-1_67_80)"/>
<mask id="path-3-inside-2_67_80" fill="white">
<path d="M26.5984 29.1058C25.1541 29.1058 23.8566 28.7386 22.9753 28.249L23.5629 26.0703C24.2483 26.4865 25.5457 26.9271 26.6229 26.9271C27.9448 26.9271 28.5323 26.3885 28.5323 25.6052C28.5323 24.7973 28.0427 24.3812 26.5739 23.8671C24.2483 23.0593 23.2691 21.7863 23.2936 20.3909C23.2936 18.2857 25.0317 16.6455 27.7979 16.6455C29.1198 16.6455 30.2704 16.9882 30.9558 17.3554L30.3683 19.4852C29.8542 19.1914 28.8995 18.7997 27.8469 18.7997C26.7697 18.7997 26.1822 19.3138 26.1822 20.0482C26.1822 20.8071 26.7453 21.1743 28.263 21.7129C30.4172 22.4962 31.4209 23.5978 31.4454 25.3604C31.4454 27.5146 29.7563 29.1058 26.5984 29.1058Z"/>
</mask>
<path d="M26.5984 29.1058C25.1541 29.1058 23.8566 28.7386 22.9753 28.249L23.5629 26.0703C24.2483 26.4865 25.5457 26.9271 26.6229 26.9271C27.9448 26.9271 28.5323 26.3885 28.5323 25.6052C28.5323 24.7973 28.0427 24.3812 26.5739 23.8671C24.2483 23.0593 23.2691 21.7863 23.2936 20.3909C23.2936 18.2857 25.0317 16.6455 27.7979 16.6455C29.1198 16.6455 30.2704 16.9882 30.9558 17.3554L30.3683 19.4852C29.8542 19.1914 28.8995 18.7997 27.8469 18.7997C26.7697 18.7997 26.1822 19.3138 26.1822 20.0482C26.1822 20.8071 26.7453 21.1743 28.263 21.7129C30.4172 22.4962 31.4209 23.5978 31.4454 25.3604C31.4454 27.5146 29.7563 29.1058 26.5984 29.1058Z" fill="#CC8E51"/>
<path d="M22.9753 28.249L18.1478 26.9472L17.13 30.7214L20.5471 32.6198L22.9753 28.249ZM23.5629 26.0703L26.1578 21.7964L20.4683 18.342L18.7353 24.7685L23.5629 26.0703ZM26.5739 23.8671L28.2257 19.1478L28.2146 19.1439L26.5739 23.8671ZM23.2936 20.3909L28.2928 20.4786L28.2936 20.4348V20.3909H23.2936ZM30.9558 17.3554L35.7758 18.6851L36.838 14.8343L33.3169 12.948L30.9558 17.3554ZM30.3683 19.4852L27.8876 23.8264L33.4765 27.02L35.1883 20.8148L30.3683 19.4852ZM28.263 21.7129L29.9717 17.0139L29.9534 17.0072L29.9351 17.0007L28.263 21.7129ZM31.4454 25.3604H36.4454V25.3257L36.4449 25.2909L31.4454 25.3604ZM26.5984 24.1058C26.2948 24.1058 26.0145 24.0665 25.7827 24.0089C25.6687 23.9805 25.5762 23.9501 25.5073 23.9236C25.437 23.8965 25.4035 23.8782 25.4036 23.8782L20.5471 32.6198C22.2287 33.554 24.3727 34.1058 26.5984 34.1058V24.1058ZM27.8029 29.5508L28.3904 27.3721L18.7353 24.7685L18.1478 26.9472L27.8029 29.5508ZM20.968 30.3442C22.3347 31.174 24.5193 31.9271 26.6229 31.9271V21.9271C26.6842 21.9271 26.6836 21.9324 26.6173 21.9212C26.5554 21.9108 26.4704 21.8917 26.3728 21.8627C26.2754 21.8337 26.1923 21.8027 26.1347 21.7782C26.0689 21.7503 26.0815 21.75 26.1578 21.7964L20.968 30.3442ZM26.6229 31.9271C27.855 31.9271 29.5531 31.6926 31.0607 30.5693C32.7833 29.2858 33.5323 27.3875 33.5323 25.6052H23.5323C23.5323 25.1719 23.6156 24.6076 23.8972 24.0101C24.1857 23.3982 24.6113 22.9041 25.0859 22.5505C25.5407 22.2116 25.9604 22.0594 26.2193 21.992C26.3508 21.9577 26.4531 21.942 26.518 21.9346C26.5832 21.9272 26.6197 21.9271 26.6229 21.9271V31.9271ZM33.5323 25.6052C33.5323 23.9115 32.8974 22.184 31.407 20.8724C30.3162 19.9125 29.014 19.4237 28.2256 19.1478L24.9221 28.5864C25.0493 28.6309 25.1421 28.6661 25.2079 28.6926C25.2744 28.7195 25.3002 28.7323 25.2962 28.7303C25.2926 28.7285 25.2421 28.7037 25.1609 28.6522C25.0792 28.6004 24.9513 28.512 24.8008 28.3795C24.4764 28.0941 24.1007 27.6498 23.8371 27.0347C23.5807 26.4363 23.5323 25.9139 23.5323 25.6052H33.5323ZM28.2146 19.1439C27.5702 18.9201 27.5715 18.7843 27.7746 19.0109C27.8876 19.1369 28.0329 19.344 28.1428 19.6333C28.2534 19.9244 28.2974 20.218 28.2928 20.4786L18.2943 20.3032C18.2159 24.7744 21.589 27.4286 24.9332 28.5903L28.2146 19.1439ZM28.2936 20.3909C28.2936 20.5615 28.2562 20.7771 28.1537 21.0008C28.0514 21.224 27.911 21.3968 27.7746 21.5145C27.4929 21.7576 27.3934 21.6455 27.7979 21.6455V11.6455C25.4362 11.6455 23.0845 12.3535 21.2422 13.943C19.3626 15.5646 18.2936 17.8822 18.2936 20.3909H28.2936ZM27.7979 21.6455C28.0331 21.6455 28.2527 21.6769 28.4288 21.7199C28.6207 21.7668 28.6754 21.8061 28.5947 21.7628L33.3169 12.948C31.8677 12.1717 29.8999 11.6455 27.7979 11.6455V21.6455ZM26.1358 16.0258L25.5483 18.1555L35.1883 20.8148L35.7758 18.6851L26.1358 16.0258ZM32.849 15.144C31.8432 14.5692 30.03 13.7997 27.8469 13.7997V23.7997C27.8015 23.7997 27.7798 23.7957 27.7831 23.7963C27.7841 23.7964 27.789 23.7973 27.7976 23.7994C27.8062 23.8014 27.817 23.8044 27.8296 23.8083C27.8423 23.8122 27.8552 23.8166 27.868 23.8214C27.8807 23.8262 27.8917 23.8307 27.9003 23.8345C27.909 23.8383 27.9134 23.8405 27.9128 23.8402C27.9125 23.8401 27.9042 23.8359 27.8876 23.8264L32.849 15.144ZM27.8469 13.7997C26.5757 13.7997 24.9514 14.0979 23.5291 15.2111C21.9781 16.4249 21.1822 18.2193 21.1822 20.0482H31.1822C31.1822 21.1428 30.6801 22.3129 29.6922 23.0861C28.8328 23.7586 28.0409 23.7997 27.8469 23.7997V13.7997ZM21.1822 20.0482C21.1822 20.883 21.3441 21.8553 21.8424 22.8297C22.332 23.7868 23.0017 24.4627 23.6067 24.9276C24.64 25.7217 25.8656 26.1676 26.591 26.425L29.9351 17.0007C29.615 16.8872 29.4527 16.8199 29.3809 16.7869C29.297 16.7485 29.4543 16.8097 29.7002 16.9987C29.9747 17.2096 30.4088 17.6178 30.7454 18.2758C31.0907 18.951 31.1822 19.5929 31.1822 20.0482H21.1822ZM26.5543 26.4118C26.8658 26.5251 27.0207 26.609 27.0732 26.6408C27.1203 26.6694 27.0336 26.625 26.902 26.4756C26.7596 26.314 26.626 26.099 26.5379 25.855C26.4537 25.6216 26.4463 25.46 26.4459 25.4298L36.4449 25.2909C36.4183 23.375 35.8151 21.4644 34.4038 19.8632C33.1094 18.3948 31.4536 17.5528 29.9717 17.0139L26.5543 26.4118ZM26.4454 25.3604C26.4454 25.2384 26.4715 25.0222 26.5886 24.7672C26.7082 24.507 26.8787 24.3028 27.0439 24.1679C27.3634 23.907 27.3849 24.1058 26.5984 24.1058V34.1058C28.9698 34.1058 31.4147 33.509 33.3683 31.9139C35.4184 30.2401 36.4454 27.8462 36.4454 25.3604H26.4454Z" fill="#F9F360" mask="url(#path-3-inside-2_67_80)"/>
<path d="M1.62499 9.27291L0.792473 9.17554L1.62499 9.27291Z" fill="#CC8E51" stroke="#F9F360" stroke-width="5"/>
<mask id="path-6-inside-3_67_80" fill="white">
<path d="M46.4671 49.3866C46.3684 49.4838 46.2514 49.5603 46.1228 49.6118C45.9943 49.6633 45.8568 49.6887 45.7183 49.6866C45.5798 49.6844 45.4432 49.6548 45.3163 49.5993C45.1894 49.5438 45.0748 49.4637 44.9792 49.3636L41.2063 45.3561L39.375 48.2196C39.2521 48.4167 39.0689 48.5673 38.8289 48.6479C38.5637 48.737 38.274 48.7172 38.0234 48.5926C37.7728 48.4681 37.582 48.2492 37.4929 47.9839L32.4522 32.9837C32.3631 32.7184 32.383 32.4287 32.5075 32.1781C32.632 31.9276 32.851 31.7367 33.1162 31.6476C33.3562 31.5669 33.6164 31.5797 33.8335 31.6625L33.8401 31.6492L48.5698 37.4282C48.7553 37.5002 48.9166 37.623 49.0353 37.7827C49.154 37.9423 49.2252 38.1323 49.2407 38.3306C49.2561 38.5289 49.2153 38.7276 49.1228 38.9037C49.0303 39.0798 48.8899 39.2262 48.7179 39.3261L45.7662 41.008L49.5557 44.9988C49.9837 45.4114 49.942 46.0821 49.5193 46.4801L46.4671 49.3866Z"/>
</mask>
<path d="M46.4671 49.3866C46.3684 49.4838 46.2514 49.5603 46.1228 49.6118C45.9943 49.6633 45.8568 49.6887 45.7183 49.6866C45.5798 49.6844 45.4432 49.6548 45.3163 49.5993C45.1894 49.5438 45.0748 49.4637 44.9792 49.3636L41.2063 45.3561L39.375 48.2196C39.2521 48.4167 39.0689 48.5673 38.8289 48.6479C38.5637 48.737 38.274 48.7172 38.0234 48.5926C37.7728 48.4681 37.582 48.2492 37.4929 47.9839L32.4522 32.9837C32.3631 32.7184 32.383 32.4287 32.5075 32.1781C32.632 31.9276 32.851 31.7367 33.1162 31.6476C33.3562 31.5669 33.6164 31.5797 33.8335 31.6625L33.8401 31.6492L48.5698 37.4282C48.7553 37.5002 48.9166 37.623 49.0353 37.7827C49.154 37.9423 49.2252 38.1323 49.2407 38.3306C49.2561 38.5289 49.2153 38.7276 49.1228 38.9037C49.0303 39.0798 48.8899 39.2262 48.7179 39.3261L45.7662 41.008L49.5557 44.9988C49.9837 45.4114 49.942 46.0821 49.5193 46.4801L46.4671 49.3866Z" fill="#212121"/>
<path d="M46.4671 49.3866L44.3983 47.2141L44.3804 47.2312L44.3627 47.2485L46.4671 49.3866ZM44.9792 49.3636L42.7949 51.42L42.8021 51.4277L42.8095 51.4354L44.9792 49.3636ZM41.2063 45.3561L43.3906 43.2996L40.7524 40.4974L38.6789 43.7398L41.2063 45.3561ZM39.375 48.2196L36.8476 46.6033L36.8385 46.6175L36.8296 46.6319L39.375 48.2196ZM33.1162 31.6476L32.1606 28.8039L33.1162 31.6476ZM33.8335 31.6625L32.7634 34.4652L35.3079 35.4367L36.52 32.9977L33.8335 31.6625ZM33.8401 31.6492L34.9358 28.8564L32.3769 27.8525L31.1536 30.314L33.8401 31.6492ZM48.5698 37.4282L47.4741 40.221L47.4847 40.2251L48.5698 37.4282ZM48.7179 39.3261L50.2031 41.9326L50.2134 41.9268L50.2237 41.9208L48.7179 39.3261ZM45.7662 41.008L44.2809 38.4015L40.9541 40.2971L43.5907 43.0738L45.7662 41.008ZM49.5557 44.9988L47.3802 47.0646L47.4259 47.1126L47.4736 47.1586L49.5557 44.9988ZM49.5193 46.4801L47.4627 44.296L47.4565 44.3018L47.4504 44.3076L49.5193 46.4801ZM44.3627 47.2485C44.5475 47.0666 44.7666 46.9233 45.0074 46.8269L47.2383 52.3967C47.7361 52.1973 48.1893 51.9009 48.5715 51.5248L44.3627 47.2485ZM45.0074 46.8269C45.2481 46.7305 45.5056 46.6829 45.7648 46.6869L45.6718 52.6862C46.208 52.6945 46.7405 52.5961 47.2383 52.3967L45.0074 46.8269ZM45.7648 46.6869C46.0241 46.6909 46.28 46.7465 46.5176 46.8503L44.115 52.3483C44.6064 52.563 45.1356 52.6779 45.6718 52.6862L45.7648 46.6869ZM46.5176 46.8503C46.7551 46.9541 46.9697 47.1042 47.1488 47.2917L42.8095 51.4354C43.1799 51.8233 43.6236 52.1336 44.115 52.3483L46.5176 46.8503ZM47.1634 47.3071L43.3906 43.2996L39.022 47.4125L42.7949 51.42L47.1634 47.3071ZM38.6789 43.7398L36.8476 46.6033L41.9024 49.8358L43.7336 46.9723L38.6789 43.7398ZM36.8296 46.6319C37.0695 46.2472 37.4443 45.9484 37.8733 45.8042L39.7845 51.4916C40.6936 51.1862 41.4346 50.5862 41.9205 49.8072L36.8296 46.6319ZM37.8733 45.8042C38.3623 45.6399 38.8965 45.6765 39.3585 45.9061L36.6883 51.2792C37.6514 51.7578 38.7651 51.8342 39.7845 51.4916L37.8733 45.8042ZM39.3585 45.9061C39.8205 46.1357 40.1723 46.5394 40.3366 47.0283L34.6491 48.9395C34.9917 49.959 35.7252 50.8006 36.6883 51.2792L39.3585 45.9061ZM40.3366 47.0283L35.2959 32.0281L29.6085 33.9393L34.6491 48.9395L40.3366 47.0283ZM35.2959 32.0281C35.4603 32.517 35.4236 33.0513 35.194 33.5132L29.821 30.843C29.3423 31.8061 29.2659 32.9198 29.6085 33.9393L35.2959 32.0281ZM35.194 33.5132C34.9645 33.9752 34.5608 34.327 34.0718 34.4913L32.1606 28.8039C31.1412 29.1464 30.2996 29.8799 29.821 30.843L35.194 33.5132ZM34.0718 34.4913C33.6204 34.643 33.1643 34.6183 32.7634 34.4652L34.9036 28.8599C34.0686 28.5411 33.092 28.4909 32.1606 28.8039L34.0718 34.4913ZM36.52 32.9977L36.5267 32.9843L31.1536 30.314L31.147 30.3274L36.52 32.9977ZM32.7444 34.4419L47.4741 40.2209L49.6655 34.6355L34.9358 28.8564L32.7444 34.4419ZM47.4847 40.2251C47.1433 40.0926 46.8462 39.8664 46.6277 39.5725L51.4429 35.9928C50.9871 35.3797 50.3673 34.9077 49.6549 34.6313L47.4847 40.2251ZM46.6277 39.5725C46.4093 39.2786 46.2782 38.929 46.2497 38.5639L52.2316 38.0972C52.1721 37.3355 51.8988 36.606 51.4429 35.9928L46.6277 39.5725ZM46.2497 38.5639C46.2213 38.1988 46.2965 37.8331 46.4667 37.5089L51.7788 40.2985C52.1341 39.622 52.291 38.859 52.2316 38.0972L46.2497 38.5639ZM46.4667 37.5089C46.637 37.1847 46.8954 36.9152 47.2121 36.7314L50.2237 41.9208C50.8845 41.5373 51.4236 40.975 51.7788 40.2985L46.4667 37.5089ZM47.2326 36.7195L44.2809 38.4015L47.2514 43.6146L50.2031 41.9326L47.2326 36.7195ZM43.5907 43.0738L47.3802 47.0646L51.7312 42.933L47.9416 38.9422L43.5907 43.0738ZM47.4736 47.1586C46.5426 46.2611 46.7679 44.9501 47.4627 44.296L51.5758 48.6643C53.116 47.214 53.4248 44.5618 51.6378 42.839L47.4736 47.1586ZM47.4504 44.3076L44.3983 47.2141L48.536 51.5592L51.5881 48.6526L47.4504 44.3076Z" fill="#F9F360" mask="url(#path-6-inside-3_67_80)"/>
</svg>
