<svg width="67" height="90" viewBox="0 0 67 90" fill="none" xmlns="http://www.w3.org/2000/svg">
<path d="M10.5018 62.3H17.2218V64.9H10.5018V62.3ZM10.7418 70H7.5018V56H18.0818V58.6H10.7418V70ZM20.2752 70V56H26.3352C27.5886 56 28.6686 56.2067 29.5752 56.62C30.4819 57.02 31.1819 57.6 31.6752 58.36C32.1686 59.12 32.4152 60.0267 32.4152 61.08C32.4152 62.12 32.1686 63.02 31.6752 63.78C31.1819 64.5267 30.4819 65.1 29.5752 65.5C28.6686 65.9 27.5886 66.1 26.3352 66.1H22.0752L23.5152 64.68V70H20.2752ZM29.1752 70L25.6752 64.92H29.1352L32.6752 70H29.1752ZM23.5152 65.04L22.0752 63.52H26.1552C27.1552 63.52 27.9019 63.3067 28.3952 62.88C28.8886 62.44 29.1352 61.84 29.1352 61.08C29.1352 60.3067 28.8886 59.7067 28.3952 59.28C27.9019 58.8533 27.1552 58.64 26.1552 58.64H22.0752L23.5152 57.1V65.04ZM37.9623 61.64H44.7023V64.16H37.9623V61.64ZM38.2023 67.4H45.8223V70H34.9823V56H45.5623V58.6H38.2023V67.4ZM51.3802 61.64H58.1202V64.16H51.3802V61.64ZM51.6202 67.4H59.2402V70H48.4002V56H58.9802V58.6H51.6202V67.4Z" fill="#CC8E51"/>
<path d="M59 6.5H33L26.5 0H7C3.425 0 0.5325 2.925 0.5325 6.5L0.5 45.5C0.5 49.075 3.425 52 7 52H59C62.575 52 65.5 49.075 65.5 45.5V13C65.5 9.425 62.575 6.5 59 6.5ZM59 45.5H7V13H59V45.5ZM20 29.2825L24.5825 33.865L29.75 28.73V42.25H36.25V28.73L41.4175 33.8975L46 29.2825L33.0325 16.25L20 29.2825Z" fill="#CC8E51"/>
<ellipse cx="33.5" cy="85.5" rx="33.5" ry="4.5" fill="#E2E2E2"/>
</svg>
