<svg width="80" height="91" viewBox="0 0 80 91" fill="none" xmlns="http://www.w3.org/2000/svg">
<path d="M40.0003 6.66699C21.6003 6.66699 6.66699 21.6003 6.66699 40.0003C6.66699 58.4003 21.6003 73.3337 40.0003 73.3337C58.4003 73.3337 73.3337 58.4003 73.3337 40.0003C73.3337 21.6003 58.4003 6.66699 40.0003 6.66699ZM40.0003 20.0003C46.4337 20.0003 51.667 25.2337 51.667 31.667C51.667 38.1003 46.4337 43.3337 40.0003 43.3337C33.567 43.3337 28.3337 38.1003 28.3337 31.667C28.3337 25.2337 33.567 20.0003 40.0003 20.0003ZM40.0003 66.667C33.2337 66.667 25.2337 63.9337 19.5337 57.067C25.3723 52.4861 32.5791 49.9963 40.0003 49.9963C47.4216 49.9963 54.6283 52.4861 60.467 57.067C54.767 63.9337 46.767 66.667 40.0003 66.667Z" fill="#CC8E51"/>
<ellipse cx="39.5" cy="86.5" rx="26.5" ry="4.5" fill="#E2E2E2"/>
</svg>
