<svg width="64" height="93" viewBox="0 0 64 93" fill="none" xmlns="http://www.w3.org/2000/svg">
<path d="M47.0998 5.00276C46.6467 5.02148 46.2118 5.18636 45.8602 5.47276C45.5086 5.75917 45.2591 6.1517 45.1491 6.59165C45.0392 7.03161 45.0745 7.49534 45.25 7.91352C45.4255 8.33169 45.7316 8.68183 46.1226 8.91156C54.748 14.1406 59.6914 23.5339 59.0397 33.3766C58.388 43.2186 52.242 51.9238 42.9929 56.0286C33.7438 60.1341 22.919 58.9392 14.8508 52.9325C14.6296 52.7677 14.3782 52.6482 14.1108 52.5806C13.8434 52.5131 13.5654 52.4988 13.2925 52.5388C13.0196 52.5787 12.7573 52.6719 12.5204 52.8132C12.2836 52.9545 12.0769 53.1411 11.9122 53.3623C11.7475 53.5834 11.6279 53.8349 11.5604 54.1023C11.4928 54.3696 11.4786 54.6477 11.5185 54.9206C11.5584 55.1934 11.6517 55.4558 11.793 55.6926C11.9343 55.9294 12.1208 56.1361 12.342 56.3009C14.1585 57.6531 16.1148 58.8068 18.1772 59.7421C13.4452 61.0581 10.4142 63.1819 10.4142 66.0001C10.4142 70.9701 19.0809 75 31.4142 75C43.7475 75 52.4142 70.9701 52.4142 66.0001C52.4142 63.2211 49.4707 61.1141 44.8507 59.7953C55.399 55.0465 62.4774 45.0162 63.2299 33.6538C63.9859 22.2354 58.227 11.3378 48.2989 5.31986C47.9402 5.09585 47.5223 4.98532 47.0998 5.00276ZM21.3629 60.986C23.8264 61.7993 26.3783 62.3153 28.9642 62.5232V63.9722C28.9642 64.4781 29.2223 64.9632 29.6818 65.321C30.1413 65.6787 30.7644 65.8797 31.4142 65.8797C32.064 65.8797 32.6871 65.6787 33.1466 65.321C33.6061 64.9632 33.8642 64.4781 33.8642 63.9722V62.5505C36.5159 62.3624 39.1346 61.85 41.6615 61.0245C45.6347 61.8974 48.2142 63.2582 48.2142 64.801C48.2142 67.4519 40.6927 69.6009 31.4142 69.6009C22.1357 69.6009 14.6142 67.4519 14.6142 64.801C14.6142 63.2372 17.2651 61.8582 21.3629 60.986Z" fill="#CC8E51"/>
<mask id="path-2-inside-1_1_94" fill="white">
<path d="M41.1154 9.20661C28.5863 4.12535 14.2889 10.171 9.2071 22.7002C4.12557 35.2288 10.1721 49.5258 22.7012 54.6071C35.2083 59.6794 49.473 53.662 54.5789 41.1796C54.5902 41.1581 54.6004 41.136 54.6095 41.1134C54.6177 41.0933 54.625 41.0728 54.6314 41.0521C59.6692 28.5382 53.6244 14.2797 41.1154 9.20661ZM40.4164 10.5129C40.8241 10.7236 41.2247 10.9465 41.6099 11.1979C41.2345 12.211 40.6995 14.1707 38.7714 13.3117C37.1256 12.7492 34.1162 15.7854 34.2815 12.7801C34.9353 11.4697 38.3704 9.68771 35.1554 9.53791C34.2055 10.1594 33.7095 11.8291 32.6772 11.1899C31.7052 12.4542 30.9391 11.1549 30.9688 10.4487C30.3088 10.5451 30.913 11.7221 30.1429 11.9075C32.3404 11.4468 29.6969 13.4169 30.4103 14.4886C29.1006 15.0118 29.8481 18.0105 28.097 16.6184C26.3837 15.5837 30.4594 14.8832 27.825 14.9371C26.2863 14.6824 26.0351 15.5178 27.005 16.1581C25.697 16.6624 24.4695 16.2212 24.0702 15.5932C22.2593 15.9275 20.4268 16.5053 18.7025 17.3581C16.9304 16.7346 15.8925 20.4185 15.2012 19.7205C15.5471 18.6032 16.6235 17.0089 15.4115 16.8111C15.1693 16.6056 14.8646 16.6248 14.544 16.7803C20.7882 9.60678 31.0936 6.80379 40.4164 10.5129ZM43.4112 11.9616C43.6878 12.1214 43.9594 12.2859 44.227 12.4549C44.552 12.7596 44.7216 13.0603 44.11 12.8961L43.7095 12.5501C43.409 12.1662 43.3472 11.9984 43.4112 11.9616ZM47.8542 15.2922C54.4538 21.6241 56.8969 31.5633 53.2477 40.5604C50.8381 46.5014 46.236 50.887 40.7552 53.1672C41.6959 52.131 42.4803 50.8692 43.7289 50.1875C45.0057 48.5664 43.6576 46.4918 45.4249 45.2312C44.4435 44.9639 43.239 43.1756 41.5862 44.2786C40.3962 43.8141 38.7 44.7055 37.8876 43.552C36.7783 42.0916 35.5134 40.3982 35.8177 38.4582C36.5564 37.149 36.8497 35.2061 37.5002 33.9783C39.0529 32.0273 41.3533 31.4096 42.6062 29.3672C42.8096 29.2957 44.4908 28.8174 44.5606 28.7981C46.2771 29.026 49.4017 27.3892 49.3151 30.2656C49.5394 30.6232 51.2221 32.5473 51.3726 31.6287C51.9574 30.3358 55.1734 32.47 54.0709 30.0207C53.9288 29.8347 53.3029 29.3407 52.7795 29.281C52.5675 29.2486 51.3609 29.8325 51.1529 28.3063C50.4723 26.8446 49.9875 31.0119 49.3055 28.4793C51.0181 28.5901 48.3035 25.4469 48.6972 26.7946C49.0649 29.2866 47.3936 27.0703 48.3562 25.8459C46.5413 24.8364 46.0134 28.799 43.9971 28.6232C44.0086 28.6301 44.0226 28.6328 44.0344 28.6391L43.7052 28.5532L43.2052 28.4025C42.9456 27.7723 41.6806 27.1928 42.5905 26.0445C42.3487 24.3075 43.3727 24.0975 44.7567 24.8136C46.5837 24.473 42.5673 21.5488 45.6338 22.2283C44.3449 21.7992 43.8 21.6341 44.2659 20.018C43.6867 22.0217 41.6898 19.8146 43.4854 19.2106C44.1307 19.0758 42.739 17.7009 44.2421 18.0341C45.2034 18.3658 45.5114 22.9324 46.7797 20.783C47.5027 20.8367 46.7622 19.1112 47.0842 19.1663C45.2028 19.0211 45.9028 15.9003 46.3335 14.7993C46.8765 15.0452 47.4534 15.2263 47.8542 15.2922ZM32.1018 9.76319C31.976 9.72879 31.7098 9.74467 31.2546 9.85387C30.7365 9.86504 29.3814 10.6734 30.7667 10.23C31.5954 10.4158 32.4797 9.86508 32.1018 9.76319ZM47.7482 16.7733C47.5251 16.7032 47.9985 17.5546 47.8899 16.867C47.8488 16.8274 47.8007 16.7956 47.7482 16.7733ZM29.3665 9.62062C29.1882 9.53321 28.8837 9.50563 28.4147 9.57447C27.1348 9.177 25.965 11.8732 26.0672 11.7235C26.5328 11.6276 27.1595 11.0117 27.6158 11.2481C28.5378 11.5148 30.1393 10.002 29.3663 9.62127L29.3665 9.62062ZM40.8052 14.3178C41.7133 14.643 42.8257 15.9227 40.7895 15.3771C40.4754 15.2482 40.153 15.0525 40.0082 14.7279C40.021 14.2196 40.393 14.1703 40.8049 14.3184L40.8052 14.3178ZM47.5287 17.4577C47.1695 17.2727 48.4488 19.2583 48.0796 17.9991C47.7816 17.6592 47.6112 17.5002 47.5285 17.4584L47.5287 17.4577ZM43.5115 16.6434C43.6375 16.6401 43.589 17.3221 43.3953 16.7791C43.4432 16.6814 43.4831 16.6447 43.5115 16.6434ZM44.7501 17.5302C44.8275 17.5888 44.8793 18.3847 44.6736 17.7952C44.6959 17.5724 44.7243 17.5099 44.7501 17.5302ZM48.6349 19.1102C48.4476 19.0358 48.3824 19.2374 48.7446 19.9666C48.6028 20.789 48.0645 20.9951 49.1851 20.6551C49.6013 20.1335 48.9481 19.2357 48.6349 19.1102ZM22.909 11.8883C22.6544 11.7488 22.3956 13.0645 23.0726 12.2613C23.0256 12.0308 22.9674 11.921 22.909 11.8883ZM26.9071 14.1351C26.7395 14.0641 26.7348 14.5244 27.1199 14.4223C27.0359 14.2402 26.9626 14.1584 26.9071 14.1351ZM52.6705 24.7732C52.3072 24.6726 52.475 27.4544 53.1716 26.5005C54.6708 26.8563 53.5322 24.995 53.007 25.3847C52.8667 24.9728 52.7546 24.7967 52.6705 24.7732ZM22.4851 13.0283C22.2591 12.9895 21.6215 14.2059 22.5509 13.1305C22.5409 13.0638 22.5169 13.0336 22.4851 13.0283ZM49.4269 25.4463C49.3469 25.4388 49.437 25.6876 49.8498 26.3701C50.0883 26.3928 50.7395 27.7928 50.717 27.1462C50.4785 26.5873 49.7083 25.611 49.4705 25.4655C49.4574 25.4562 49.4426 25.4497 49.4269 25.4463ZM21.4383 14.1082C21.2323 13.9718 20.4853 14.5585 21.4666 14.3364C21.5046 14.2091 21.486 14.1396 21.4383 14.1082ZM52.0718 27.713C51.9341 27.7154 52.1647 28.7054 52.3481 28.134C52.2049 27.8206 52.1179 27.7129 52.0718 27.713ZM46.9815 26.8722C47.2815 26.9425 46.586 28.1732 46.2968 27.3089C46.6702 26.9544 46.8814 26.8489 46.9815 26.8722ZM52.5783 29.6745C52.9018 29.7596 52.8126 30.7392 52.1234 29.9862C52.3161 29.7177 52.4703 29.6465 52.5783 29.6745ZM35.477 24.2087C35.7973 24.3725 35.5178 24.8846 34.9458 24.2168C35.197 24.1374 35.3701 24.154 35.477 24.2087ZM36.3395 24.9557C36.4542 25.0619 35.9913 25.4398 35.9936 24.9816C36.1988 24.9153 36.3015 24.9207 36.3395 24.9557ZM39.0092 28.7234C39.2157 28.7543 38.858 29.3962 38.7655 28.8217C38.8841 28.7414 38.9616 28.7162 39.0092 28.7234ZM16.1539 19.6809C16.2792 19.7294 16.1791 20.7696 15.9508 20.0622C16.0452 19.7569 16.1121 19.6647 16.1539 19.6809ZM15.6036 20.33C15.7197 20.4013 15.1768 21.5647 15.222 20.7364C15.453 20.4034 15.5649 20.306 15.6036 20.33ZM13.2638 19.8063C13.4631 20.0525 11.9813 21.6388 12.0684 22.2081C12.4034 23.8998 9.98323 25.6954 11.8738 26.9969C13.1873 25.8703 13.347 27.441 13.5798 27.3345C14.3051 27.4905 14.109 29.3557 15.4147 29.6225C16.8809 30.0449 15.0635 32.5275 16.8585 33.612C18.9261 35.2405 17.4101 38.2819 19.8321 39.7181C20.9945 41.2303 25.1098 43.3539 22.7759 45.2646C20.4441 45.2781 20.2489 49.4374 17.5944 47.5331C16.8707 47.4571 16.325 47.9963 15.6655 48.2387C13.4575 46.0386 11.719 43.4135 10.5551 40.522C10.1205 38.2862 9.05252 36.1968 9.12637 33.862C8.36797 31.2086 10.5259 29.5642 11.0631 27.3365C11.4212 26.1872 10.4273 27.852 10.6278 26.2906C10.5337 24.9119 10.9553 23.3118 11.1842 21.8797C11.5609 21.0998 11.9778 20.3512 12.4291 19.6317C12.3861 19.8084 12.3684 19.9673 12.3847 20.0948C12.9456 19.7921 13.1974 19.7243 13.2638 19.8063ZM14.1803 20.1984C14.3009 20.2624 14.4584 20.3807 14.6629 20.5655C14.6015 22.0074 15.6581 22.9125 15.0866 23.3272C15.8261 24.0365 16.4322 26.2293 14.6576 24.6381C13.5031 23.5218 15.5656 23.7775 14.112 22.6759C14.3261 21.9637 13.3351 19.7499 14.1803 20.1984ZM39.7838 30.9869C39.9901 31.0705 39.8148 31.97 39.265 31.577C39.5166 31.0794 39.6898 30.9487 39.7838 30.9869ZM15.6038 21.6125C15.6854 21.6721 15.7281 21.9802 15.5204 22.2464L15.4456 22.1367C15.4446 21.761 15.5072 21.6141 15.5678 21.6025C15.5742 21.6014 15.5807 21.6017 15.5869 21.6033C15.5932 21.6049 15.599 21.6078 15.604 21.6119L15.6038 21.6125ZM38.0653 30.7657C38.666 30.9701 39.5154 31.872 38.1501 31.3704L37.6974 31.1868L37.6326 31.1174C37.5707 30.7245 37.7924 30.6732 38.0653 30.7657ZM13.6537 22.7929C13.894 22.9546 14.312 24.1067 13.5614 23.4488C13.4717 22.8505 13.544 22.7189 13.6537 22.7929ZM16.1296 25.2864C16.473 25.3781 16.5571 26.4371 15.7223 25.622C15.87 25.3322 16.0142 25.2562 16.1296 25.2864ZM17.0512 27.5876C17.1631 27.6934 16.4713 29.7436 16.5003 28.6534L16.6162 28.3175C16.8883 27.7322 17.0142 27.5522 17.0512 27.5876ZM32.4368 35.3786C32.6741 35.5066 33.2551 36.3404 32.4841 35.8336C32.2918 35.4082 32.328 35.3209 32.4368 35.3786ZM33.5428 36.1527C33.7698 36.241 33.4075 36.8939 33.2813 36.2052C33.4063 36.1427 33.49 36.132 33.5428 36.1527ZM33.0979 36.6686C33.4664 36.7524 32.9152 37.3294 32.681 36.7095C32.8786 36.656 33.0131 36.6486 33.0979 36.6686ZM32.476 36.5184C32.5985 36.5831 32.2749 37.1724 32.1812 36.6865C32.3456 36.5327 32.4357 36.4967 32.476 36.5184ZM44.0283 46.127C44.1502 46.1916 43.8269 46.7802 43.7329 46.295C43.8979 46.1414 43.988 46.1054 44.0283 46.127Z"/>
</mask>
<path d="M41.1154 9.20661C28.5863 4.12535 14.2889 10.171 9.2071 22.7002C4.12557 35.2288 10.1721 49.5258 22.7012 54.6071C35.2083 59.6794 49.473 53.662 54.5789 41.1796C54.5902 41.1581 54.6004 41.136 54.6095 41.1134C54.6177 41.0933 54.625 41.0728 54.6314 41.0521C59.6692 28.5382 53.6244 14.2797 41.1154 9.20661ZM40.4164 10.5129C40.8241 10.7236 41.2247 10.9465 41.6099 11.1979C41.2345 12.211 40.6995 14.1707 38.7714 13.3117C37.1256 12.7492 34.1162 15.7854 34.2815 12.7801C34.9353 11.4697 38.3704 9.68771 35.1554 9.53791C34.2055 10.1594 33.7095 11.8291 32.6772 11.1899C31.7052 12.4542 30.9391 11.1549 30.9688 10.4487C30.3088 10.5451 30.913 11.7221 30.1429 11.9075C32.3404 11.4468 29.6969 13.4169 30.4103 14.4886C29.1006 15.0118 29.8481 18.0105 28.097 16.6184C26.3837 15.5837 30.4594 14.8832 27.825 14.9371C26.2863 14.6824 26.0351 15.5178 27.005 16.1581C25.697 16.6624 24.4695 16.2212 24.0702 15.5932C22.2593 15.9275 20.4268 16.5053 18.7025 17.3581C16.9304 16.7346 15.8925 20.4185 15.2012 19.7205C15.5471 18.6032 16.6235 17.0089 15.4115 16.8111C15.1693 16.6056 14.8646 16.6248 14.544 16.7803C20.7882 9.60678 31.0936 6.80379 40.4164 10.5129ZM43.4112 11.9616C43.6878 12.1214 43.9594 12.2859 44.227 12.4549C44.552 12.7596 44.7216 13.0603 44.11 12.8961L43.7095 12.5501C43.409 12.1662 43.3472 11.9984 43.4112 11.9616ZM47.8542 15.2922C54.4538 21.6241 56.8969 31.5633 53.2477 40.5604C50.8381 46.5014 46.236 50.887 40.7552 53.1672C41.6959 52.131 42.4803 50.8692 43.7289 50.1875C45.0057 48.5664 43.6576 46.4918 45.4249 45.2312C44.4435 44.9639 43.239 43.1756 41.5862 44.2786C40.3962 43.8141 38.7 44.7055 37.8876 43.552C36.7783 42.0916 35.5134 40.3982 35.8177 38.4582C36.5564 37.149 36.8497 35.2061 37.5002 33.9783C39.0529 32.0273 41.3533 31.4096 42.6062 29.3672C42.8096 29.2957 44.4908 28.8174 44.5606 28.7981C46.2771 29.026 49.4017 27.3892 49.3151 30.2656C49.5394 30.6232 51.2221 32.5473 51.3726 31.6287C51.9574 30.3358 55.1734 32.47 54.0709 30.0207C53.9288 29.8347 53.3029 29.3407 52.7795 29.281C52.5675 29.2486 51.3609 29.8325 51.1529 28.3063C50.4723 26.8446 49.9875 31.0119 49.3055 28.4793C51.0181 28.5901 48.3035 25.4469 48.6972 26.7946C49.0649 29.2866 47.3936 27.0703 48.3562 25.8459C46.5413 24.8364 46.0134 28.799 43.9971 28.6232C44.0086 28.6301 44.0226 28.6328 44.0344 28.6391L43.7052 28.5532L43.2052 28.4025C42.9456 27.7723 41.6806 27.1928 42.5905 26.0445C42.3487 24.3075 43.3727 24.0975 44.7567 24.8136C46.5837 24.473 42.5673 21.5488 45.6338 22.2283C44.3449 21.7992 43.8 21.6341 44.2659 20.018C43.6867 22.0217 41.6898 19.8146 43.4854 19.2106C44.1307 19.0758 42.739 17.7009 44.2421 18.0341C45.2034 18.3658 45.5114 22.9324 46.7797 20.783C47.5027 20.8367 46.7622 19.1112 47.0842 19.1663C45.2028 19.0211 45.9028 15.9003 46.3335 14.7993C46.8765 15.0452 47.4534 15.2263 47.8542 15.2922ZM32.1018 9.76319C31.976 9.72879 31.7098 9.74467 31.2546 9.85387C30.7365 9.86504 29.3814 10.6734 30.7667 10.23C31.5954 10.4158 32.4797 9.86508 32.1018 9.76319ZM47.7482 16.7733C47.5251 16.7032 47.9985 17.5546 47.8899 16.867C47.8488 16.8274 47.8007 16.7956 47.7482 16.7733ZM29.3665 9.62062C29.1882 9.53321 28.8837 9.50563 28.4147 9.57447C27.1348 9.177 25.965 11.8732 26.0672 11.7235C26.5328 11.6276 27.1595 11.0117 27.6158 11.2481C28.5378 11.5148 30.1393 10.002 29.3663 9.62127L29.3665 9.62062ZM40.8052 14.3178C41.7133 14.643 42.8257 15.9227 40.7895 15.3771C40.4754 15.2482 40.153 15.0525 40.0082 14.7279C40.021 14.2196 40.393 14.1703 40.8049 14.3184L40.8052 14.3178ZM47.5287 17.4577C47.1695 17.2727 48.4488 19.2583 48.0796 17.9991C47.7816 17.6592 47.6112 17.5002 47.5285 17.4584L47.5287 17.4577ZM43.5115 16.6434C43.6375 16.6401 43.589 17.3221 43.3953 16.7791C43.4432 16.6814 43.4831 16.6447 43.5115 16.6434ZM44.7501 17.5302C44.8275 17.5888 44.8793 18.3847 44.6736 17.7952C44.6959 17.5724 44.7243 17.5099 44.7501 17.5302ZM48.6349 19.1102C48.4476 19.0358 48.3824 19.2374 48.7446 19.9666C48.6028 20.789 48.0645 20.9951 49.1851 20.6551C49.6013 20.1335 48.9481 19.2357 48.6349 19.1102ZM22.909 11.8883C22.6544 11.7488 22.3956 13.0645 23.0726 12.2613C23.0256 12.0308 22.9674 11.921 22.909 11.8883ZM26.9071 14.1351C26.7395 14.0641 26.7348 14.5244 27.1199 14.4223C27.0359 14.2402 26.9626 14.1584 26.9071 14.1351ZM52.6705 24.7732C52.3072 24.6726 52.475 27.4544 53.1716 26.5005C54.6708 26.8563 53.5322 24.995 53.007 25.3847C52.8667 24.9728 52.7546 24.7967 52.6705 24.7732ZM22.4851 13.0283C22.2591 12.9895 21.6215 14.2059 22.5509 13.1305C22.5409 13.0638 22.5169 13.0336 22.4851 13.0283ZM49.4269 25.4463C49.3469 25.4388 49.437 25.6876 49.8498 26.3701C50.0883 26.3928 50.7395 27.7928 50.717 27.1462C50.4785 26.5873 49.7083 25.611 49.4705 25.4655C49.4574 25.4562 49.4426 25.4497 49.4269 25.4463ZM21.4383 14.1082C21.2323 13.9718 20.4853 14.5585 21.4666 14.3364C21.5046 14.2091 21.486 14.1396 21.4383 14.1082ZM52.0718 27.713C51.9341 27.7154 52.1647 28.7054 52.3481 28.134C52.2049 27.8206 52.1179 27.7129 52.0718 27.713ZM46.9815 26.8722C47.2815 26.9425 46.586 28.1732 46.2968 27.3089C46.6702 26.9544 46.8814 26.8489 46.9815 26.8722ZM52.5783 29.6745C52.9018 29.7596 52.8126 30.7392 52.1234 29.9862C52.3161 29.7177 52.4703 29.6465 52.5783 29.6745ZM35.477 24.2087C35.7973 24.3725 35.5178 24.8846 34.9458 24.2168C35.197 24.1374 35.3701 24.154 35.477 24.2087ZM36.3395 24.9557C36.4542 25.0619 35.9913 25.4398 35.9936 24.9816C36.1988 24.9153 36.3015 24.9207 36.3395 24.9557ZM39.0092 28.7234C39.2157 28.7543 38.858 29.3962 38.7655 28.8217C38.8841 28.7414 38.9616 28.7162 39.0092 28.7234ZM16.1539 19.6809C16.2792 19.7294 16.1791 20.7696 15.9508 20.0622C16.0452 19.7569 16.1121 19.6647 16.1539 19.6809ZM15.6036 20.33C15.7197 20.4013 15.1768 21.5647 15.222 20.7364C15.453 20.4034 15.5649 20.306 15.6036 20.33ZM13.2638 19.8063C13.4631 20.0525 11.9813 21.6388 12.0684 22.2081C12.4034 23.8998 9.98323 25.6954 11.8738 26.9969C13.1873 25.8703 13.347 27.441 13.5798 27.3345C14.3051 27.4905 14.109 29.3557 15.4147 29.6225C16.8809 30.0449 15.0635 32.5275 16.8585 33.612C18.9261 35.2405 17.4101 38.2819 19.8321 39.7181C20.9945 41.2303 25.1098 43.3539 22.7759 45.2646C20.4441 45.2781 20.2489 49.4374 17.5944 47.5331C16.8707 47.4571 16.325 47.9963 15.6655 48.2387C13.4575 46.0386 11.719 43.4135 10.5551 40.522C10.1205 38.2862 9.05252 36.1968 9.12637 33.862C8.36797 31.2086 10.5259 29.5642 11.0631 27.3365C11.4212 26.1872 10.4273 27.852 10.6278 26.2906C10.5337 24.9119 10.9553 23.3118 11.1842 21.8797C11.5609 21.0998 11.9778 20.3512 12.4291 19.6317C12.3861 19.8084 12.3684 19.9673 12.3847 20.0948C12.9456 19.7921 13.1974 19.7243 13.2638 19.8063ZM14.1803 20.1984C14.3009 20.2624 14.4584 20.3807 14.6629 20.5655C14.6015 22.0074 15.6581 22.9125 15.0866 23.3272C15.8261 24.0365 16.4322 26.2293 14.6576 24.6381C13.5031 23.5218 15.5656 23.7775 14.112 22.6759C14.3261 21.9637 13.3351 19.7499 14.1803 20.1984ZM39.7838 30.9869C39.9901 31.0705 39.8148 31.97 39.265 31.577C39.5166 31.0794 39.6898 30.9487 39.7838 30.9869ZM15.6038 21.6125C15.6854 21.6721 15.7281 21.9802 15.5204 22.2464L15.4456 22.1367C15.4446 21.761 15.5072 21.6141 15.5678 21.6025C15.5742 21.6014 15.5807 21.6017 15.5869 21.6033C15.5932 21.6049 15.599 21.6078 15.604 21.6119L15.6038 21.6125ZM38.0653 30.7657C38.666 30.9701 39.5154 31.872 38.1501 31.3704L37.6974 31.1868L37.6326 31.1174C37.5707 30.7245 37.7924 30.6732 38.0653 30.7657ZM13.6537 22.7929C13.894 22.9546 14.312 24.1067 13.5614 23.4488C13.4717 22.8505 13.544 22.7189 13.6537 22.7929ZM16.1296 25.2864C16.473 25.3781 16.5571 26.4371 15.7223 25.622C15.87 25.3322 16.0142 25.2562 16.1296 25.2864ZM17.0512 27.5876C17.1631 27.6934 16.4713 29.7436 16.5003 28.6534L16.6162 28.3175C16.8883 27.7322 17.0142 27.5522 17.0512 27.5876ZM32.4368 35.3786C32.6741 35.5066 33.2551 36.3404 32.4841 35.8336C32.2918 35.4082 32.328 35.3209 32.4368 35.3786ZM33.5428 36.1527C33.7698 36.241 33.4075 36.8939 33.2813 36.2052C33.4063 36.1427 33.49 36.132 33.5428 36.1527ZM33.0979 36.6686C33.4664 36.7524 32.9152 37.3294 32.681 36.7095C32.8786 36.656 33.0131 36.6486 33.0979 36.6686ZM32.476 36.5184C32.5985 36.5831 32.2749 37.1724 32.1812 36.6865C32.3456 36.5327 32.4357 36.4967 32.476 36.5184ZM44.0283 46.127C44.1502 46.1916 43.8269 46.7802 43.7329 46.295C43.8979 46.1414 43.988 46.1054 44.0283 46.127Z" fill="#CC8E51" stroke="#CC8E51" stroke-width="8" mask="url(#path-2-inside-1_1_94)"/>
<ellipse cx="32.9141" cy="88.5" rx="30.5" ry="4.5" fill="#E2E2E2"/>
</svg>
